%TF.GenerationSoftware,KiCad,Pcbnew,8.0.8*%
%TF.CreationDate,2025-05-31T18:37:02+02:00*%
%TF.ProjectId,Arduino_pcb,41726475-696e-46f5-9f70-63622e6b6963,rev?*%
%TF.SameCoordinates,Original*%
%TF.FileFunction,Soldermask,Top*%
%TF.FilePolarity,Negative*%
%FSLAX46Y46*%
G04 Gerber Fmt 4.6, Leading zero omitted, Abs format (unit mm)*
G04 Created by KiCad (PCBNEW 8.0.8) date 2025-05-31 18:37:02*
%MOMM*%
%LPD*%
G01*
G04 APERTURE LIST*
G04 Aperture macros list*
%AMRoundRect*
0 Rectangle with rounded corners*
0 $1 Rounding radius*
0 $2 $3 $4 $5 $6 $7 $8 $9 X,Y pos of 4 corners*
0 Add a 4 corners polygon primitive as box body*
4,1,4,$2,$3,$4,$5,$6,$7,$8,$9,$2,$3,0*
0 Add four circle primitives for the rounded corners*
1,1,$1+$1,$2,$3*
1,1,$1+$1,$4,$5*
1,1,$1+$1,$6,$7*
1,1,$1+$1,$8,$9*
0 Add four rect primitives between the rounded corners*
20,1,$1+$1,$2,$3,$4,$5,0*
20,1,$1+$1,$4,$5,$6,$7,0*
20,1,$1+$1,$6,$7,$8,$9,0*
20,1,$1+$1,$8,$9,$2,$3,0*%
%AMFreePoly0*
4,1,17,0.356937,0.810921,0.810921,0.356937,0.825800,0.321016,0.825800,-0.321016,0.810921,-0.356937,0.356937,-0.810921,0.321016,-0.825800,-0.321016,-0.825800,-0.356937,-0.810921,-0.810921,-0.356937,-0.825800,-0.321016,-0.825800,0.321016,-0.810921,0.356937,-0.356937,0.810921,-0.321016,0.825800,0.321016,0.825800,0.356937,0.810921,0.356937,0.810921,$1*%
G04 Aperture macros list end*
%ADD10RoundRect,0.085500X-0.751500X-0.256500X0.751500X-0.256500X0.751500X0.256500X-0.751500X0.256500X0*%
%ADD11RoundRect,0.200000X-0.200000X-0.275000X0.200000X-0.275000X0.200000X0.275000X-0.200000X0.275000X0*%
%ADD12RoundRect,0.062500X0.375000X0.062500X-0.375000X0.062500X-0.375000X-0.062500X0.375000X-0.062500X0*%
%ADD13RoundRect,0.062500X0.062500X0.375000X-0.062500X0.375000X-0.062500X-0.375000X0.062500X-0.375000X0*%
%ADD14R,3.100000X3.100000*%
%ADD15R,1.600000X1.600000*%
%ADD16O,1.600000X1.600000*%
%ADD17R,1.350000X1.350000*%
%ADD18O,1.350000X1.350000*%
%ADD19RoundRect,0.218750X-0.218750X-0.256250X0.218750X-0.256250X0.218750X0.256250X-0.218750X0.256250X0*%
%ADD20RoundRect,0.100000X0.100000X-0.130000X0.100000X0.130000X-0.100000X0.130000X-0.100000X-0.130000X0*%
%ADD21RoundRect,0.140000X0.140000X0.170000X-0.140000X0.170000X-0.140000X-0.170000X0.140000X-0.170000X0*%
%ADD22R,1.900000X2.500000*%
%ADD23RoundRect,0.150000X-0.512500X-0.150000X0.512500X-0.150000X0.512500X0.150000X-0.512500X0.150000X0*%
%ADD24RoundRect,0.218750X-0.218750X-0.381250X0.218750X-0.381250X0.218750X0.381250X-0.218750X0.381250X0*%
%ADD25FreePoly0,270.000000*%
%ADD26R,2.500000X1.900000*%
%ADD27RoundRect,0.134250X-0.402750X-0.477750X0.402750X-0.477750X0.402750X0.477750X-0.402750X0.477750X0*%
%ADD28R,1.524000X2.524000*%
%ADD29O,1.524000X2.524000*%
%ADD30RoundRect,0.100000X-0.130000X-0.100000X0.130000X-0.100000X0.130000X0.100000X-0.130000X0.100000X0*%
%ADD31RoundRect,0.200000X0.200000X0.275000X-0.200000X0.275000X-0.200000X-0.275000X0.200000X-0.275000X0*%
%ADD32RoundRect,0.200000X0.275000X-0.200000X0.275000X0.200000X-0.275000X0.200000X-0.275000X-0.200000X0*%
%ADD33RoundRect,0.375000X-0.625000X-0.375000X0.625000X-0.375000X0.625000X0.375000X-0.625000X0.375000X0*%
%ADD34RoundRect,0.500000X-0.500000X-1.400000X0.500000X-1.400000X0.500000X1.400000X-0.500000X1.400000X0*%
%ADD35RoundRect,0.250000X1.500000X0.550000X-1.500000X0.550000X-1.500000X-0.550000X1.500000X-0.550000X0*%
%ADD36RoundRect,0.875000X-0.875000X-0.875000X0.875000X-0.875000X0.875000X0.875000X-0.875000X0.875000X0*%
%ADD37RoundRect,0.750000X-0.750000X-1.000000X0.750000X-1.000000X0.750000X1.000000X-0.750000X1.000000X0*%
%ADD38R,3.500000X3.500000*%
%ADD39R,1.120000X2.160000*%
%ADD40RoundRect,0.225000X-0.225000X-0.250000X0.225000X-0.250000X0.225000X0.250000X-0.225000X0.250000X0*%
%ADD41RoundRect,0.250000X-1.500000X-0.550000X1.500000X-0.550000X1.500000X0.550000X-1.500000X0.550000X0*%
%ADD42RoundRect,0.150000X-0.587500X-0.150000X0.587500X-0.150000X0.587500X0.150000X-0.587500X0.150000X0*%
%ADD43R,0.850000X0.850000*%
%ADD44O,0.850000X0.850000*%
%ADD45RoundRect,0.200000X-0.275000X0.200000X-0.275000X-0.200000X0.275000X-0.200000X0.275000X0.200000X0*%
%ADD46RoundRect,0.140000X-0.140000X-0.170000X0.140000X-0.170000X0.140000X0.170000X-0.140000X0.170000X0*%
%ADD47RoundRect,0.218750X0.218750X0.256250X-0.218750X0.256250X-0.218750X-0.256250X0.218750X-0.256250X0*%
%ADD48R,1.000000X1.500000*%
%ADD49R,1.700000X1.700000*%
%ADD50C,1.700000*%
%ADD51C,3.500000*%
%ADD52RoundRect,0.100000X0.130000X0.100000X-0.130000X0.100000X-0.130000X-0.100000X0.130000X-0.100000X0*%
%ADD53RoundRect,0.062500X-0.337500X-0.062500X0.337500X-0.062500X0.337500X0.062500X-0.337500X0.062500X0*%
%ADD54RoundRect,0.062500X-0.062500X-0.337500X0.062500X-0.337500X0.062500X0.337500X-0.062500X0.337500X0*%
%ADD55R,2.700000X2.700000*%
%ADD56RoundRect,0.093750X-0.106250X0.093750X-0.106250X-0.093750X0.106250X-0.093750X0.106250X0.093750X0*%
%ADD57R,1.600000X1.000000*%
%ADD58FreePoly0,90.000000*%
G04 APERTURE END LIST*
D10*
%TO.C,U4*%
X82750000Y-142950000D03*
X82750000Y-142300000D03*
X82750000Y-141650000D03*
X82750000Y-141000000D03*
X77750000Y-141000000D03*
X77750000Y-141650000D03*
X77750000Y-142300000D03*
X77750000Y-142950000D03*
%TD*%
D11*
%TO.C,R15*%
X115100000Y-91250000D03*
X116750000Y-91250000D03*
%TD*%
D12*
%TO.C,U1*%
X97267500Y-131687500D03*
X97267500Y-131187500D03*
X97267500Y-130687500D03*
X97267500Y-130187500D03*
X97267500Y-129687500D03*
X97267500Y-129187500D03*
X97267500Y-128687500D03*
X97267500Y-128187500D03*
D13*
X96580000Y-127500000D03*
X96080000Y-127500000D03*
X95580000Y-127500000D03*
X95080000Y-127500000D03*
X94580000Y-127500000D03*
X94080000Y-127500000D03*
X93580000Y-127500000D03*
X93080000Y-127500000D03*
D12*
X92392500Y-128187500D03*
X92392500Y-128687500D03*
X92392500Y-129187500D03*
X92392500Y-129687500D03*
X92392500Y-130187500D03*
X92392500Y-130687500D03*
X92392500Y-131187500D03*
X92392500Y-131687500D03*
D13*
X93080000Y-132375000D03*
X93580000Y-132375000D03*
X94080000Y-132375000D03*
X94580000Y-132375000D03*
X95080000Y-132375000D03*
X95580000Y-132375000D03*
X96080000Y-132375000D03*
X96580000Y-132375000D03*
D14*
X94830000Y-129937500D03*
%TD*%
D10*
%TO.C,U8*%
X132750000Y-99700000D03*
X132750000Y-99050000D03*
X132750000Y-98400000D03*
X132750000Y-97750000D03*
X127750000Y-97750000D03*
X127750000Y-98400000D03*
X127750000Y-99050000D03*
X127750000Y-99700000D03*
%TD*%
D15*
%TO.C,U2*%
X118420000Y-122000000D03*
D16*
X120960000Y-122000000D03*
X123500000Y-122000000D03*
X126040000Y-122000000D03*
X128580000Y-122000000D03*
X131120000Y-122000000D03*
X133660000Y-122000000D03*
X136200000Y-122000000D03*
X138740000Y-122000000D03*
X141280000Y-122000000D03*
X143820000Y-122000000D03*
X146360000Y-122000000D03*
X148900000Y-122000000D03*
X151440000Y-122000000D03*
X151440000Y-114380000D03*
X148900000Y-114380000D03*
X146360000Y-114380000D03*
X143820000Y-114380000D03*
X141280000Y-114380000D03*
X138740000Y-114380000D03*
X136200000Y-114380000D03*
X133660000Y-114380000D03*
X131120000Y-114380000D03*
X128580000Y-114380000D03*
X126040000Y-114380000D03*
X123500000Y-114380000D03*
X120960000Y-114380000D03*
X118420000Y-114380000D03*
%TD*%
D17*
%TO.C,J2*%
X84250000Y-129000000D03*
D18*
X86250000Y-129000000D03*
X84250000Y-131000000D03*
X86250000Y-131000000D03*
%TD*%
D11*
%TO.C,R11*%
X115600000Y-127000000D03*
X117250000Y-127000000D03*
%TD*%
D19*
%TO.C,D1*%
X77675000Y-137750000D03*
X79250000Y-137750000D03*
%TD*%
D20*
%TO.C,C13*%
X86500000Y-103570000D03*
X86500000Y-102930000D03*
%TD*%
D21*
%TO.C,C9*%
X146230000Y-128250000D03*
X145270000Y-128250000D03*
%TD*%
D19*
%TO.C,TX_LED1*%
X101925000Y-118750000D03*
X103500000Y-118750000D03*
%TD*%
D22*
%TO.C,Y2*%
X142200000Y-128000000D03*
X137800000Y-128000000D03*
%TD*%
D11*
%TO.C,R1*%
X85175000Y-111250000D03*
X86825000Y-111250000D03*
%TD*%
D23*
%TO.C,U5*%
X84112500Y-146050000D03*
X84112500Y-147000000D03*
X84112500Y-147950000D03*
X86387500Y-147950000D03*
X86387500Y-146050000D03*
%TD*%
D24*
%TO.C,FB3*%
X135687500Y-110250000D03*
X137812500Y-110250000D03*
%TD*%
D19*
%TO.C,D3*%
X136712500Y-99750000D03*
X138287500Y-99750000D03*
%TD*%
D21*
%TO.C,C2*%
X107500000Y-135750000D03*
X106540000Y-135750000D03*
%TD*%
D25*
%TO.C,J3*%
X147210000Y-98210000D03*
X149750000Y-98210000D03*
X147210000Y-100750000D03*
X149750000Y-100750000D03*
X147210000Y-103290000D03*
X149750000Y-103290000D03*
%TD*%
D26*
%TO.C,Y1*%
X103250000Y-129850000D03*
X103250000Y-134250000D03*
%TD*%
D27*
%TO.C,Z2*%
X79940000Y-111500000D03*
X81500000Y-111500000D03*
%TD*%
D28*
%TO.C,AFF1*%
X148920000Y-147000000D03*
D29*
X151460000Y-147000000D03*
X154000000Y-147000000D03*
X156540000Y-147000000D03*
X159080000Y-147000000D03*
X159080000Y-131760000D03*
X156540000Y-131760000D03*
X154000000Y-131760000D03*
X151460000Y-131760000D03*
X148920000Y-131760000D03*
%TD*%
D30*
%TO.C,C14*%
X135930000Y-106500000D03*
X136570000Y-106500000D03*
%TD*%
D19*
%TO.C,RX_LED1*%
X101856250Y-121500000D03*
X103431250Y-121500000D03*
%TD*%
D31*
%TO.C,R7*%
X140900000Y-133250000D03*
X139250000Y-133250000D03*
%TD*%
D32*
%TO.C,R4*%
X73750000Y-140825000D03*
X73750000Y-139175000D03*
%TD*%
D33*
%TO.C,U6*%
X86100000Y-88200000D03*
X86100000Y-90500000D03*
D34*
X92400000Y-90500000D03*
D33*
X86100000Y-92800000D03*
%TD*%
D11*
%TO.C,R2*%
X79675000Y-115500000D03*
X81325000Y-115500000D03*
%TD*%
D35*
%TO.C,PC2*%
X95000000Y-99750000D03*
X89400000Y-99750000D03*
%TD*%
D11*
%TO.C,R16*%
X115025000Y-87750000D03*
X116675000Y-87750000D03*
%TD*%
D19*
%TO.C,F1*%
X94925000Y-136500000D03*
X96500000Y-136500000D03*
%TD*%
D36*
%TO.C,J8*%
X67500000Y-97492500D03*
D37*
X64500000Y-92792500D03*
D38*
X70500000Y-92792500D03*
%TD*%
D39*
%TO.C,SW4*%
X137000000Y-137135000D03*
X137000000Y-143865000D03*
%TD*%
%TO.C,SW1*%
X115500000Y-137135000D03*
X115500000Y-143865000D03*
%TD*%
D40*
%TO.C,C4*%
X89225000Y-136000000D03*
X90775000Y-136000000D03*
%TD*%
D41*
%TO.C,PC1*%
X77950000Y-99750000D03*
X83550000Y-99750000D03*
%TD*%
D42*
%TO.C,Q1*%
X87875000Y-141050000D03*
X87875000Y-142950000D03*
X89750000Y-142000000D03*
%TD*%
D43*
%TO.C,J5*%
X121080000Y-130000000D03*
D44*
X122080000Y-130000000D03*
X123080000Y-130000000D03*
X124080000Y-130000000D03*
X125080000Y-130000000D03*
X126080000Y-130000000D03*
X127080000Y-130000000D03*
X128080000Y-130000000D03*
%TD*%
D40*
%TO.C,C3*%
X102450000Y-138750000D03*
X104000000Y-138750000D03*
%TD*%
D11*
%TO.C,R6*%
X107212500Y-118750000D03*
X108862500Y-118750000D03*
%TD*%
D45*
%TO.C,R3*%
X106750000Y-131175000D03*
X106750000Y-132825000D03*
%TD*%
D32*
%TO.C,R9*%
X106750000Y-114325000D03*
X106750000Y-112675000D03*
%TD*%
D11*
%TO.C,R17*%
X112500000Y-105500000D03*
X114150000Y-105500000D03*
%TD*%
D24*
%TO.C,FB2*%
X101687500Y-141250000D03*
X103812500Y-141250000D03*
%TD*%
D39*
%TO.C,SW3*%
X129000000Y-137135000D03*
X129000000Y-143865000D03*
%TD*%
D30*
%TO.C,C6*%
X139750000Y-110250000D03*
X140390000Y-110250000D03*
%TD*%
D39*
%TO.C,SW2*%
X122500000Y-137135000D03*
X122500000Y-143865000D03*
%TD*%
D30*
%TO.C,C12*%
X85360000Y-142250000D03*
X86000000Y-142250000D03*
%TD*%
D46*
%TO.C,C8*%
X134040000Y-128000000D03*
X135000000Y-128000000D03*
%TD*%
D47*
%TO.C,D5*%
X120712500Y-89500000D03*
X119137500Y-89500000D03*
%TD*%
D48*
%TO.C,SJ2*%
X110100000Y-124500000D03*
X111400000Y-124500000D03*
%TD*%
D43*
%TO.C,J4*%
X123580000Y-108000000D03*
D44*
X122580000Y-108000000D03*
X121580000Y-108000000D03*
X120580000Y-108000000D03*
X119580000Y-108000000D03*
X118580000Y-108000000D03*
%TD*%
D11*
%TO.C,R18*%
X118175000Y-105500000D03*
X119825000Y-105500000D03*
%TD*%
%TO.C,R8*%
X102350000Y-123750000D03*
X104000000Y-123750000D03*
%TD*%
D21*
%TO.C,C1*%
X107460000Y-129750000D03*
X106500000Y-129750000D03*
%TD*%
D43*
%TO.C,J6*%
X152580000Y-107500000D03*
D44*
X151580000Y-107500000D03*
X150580000Y-107500000D03*
X149580000Y-107500000D03*
X148580000Y-107500000D03*
X147580000Y-107500000D03*
X146580000Y-107500000D03*
X145580000Y-107500000D03*
X144580000Y-107500000D03*
X143580000Y-107500000D03*
%TD*%
D48*
%TO.C,SJ1*%
X96250000Y-110000000D03*
X97550000Y-110000000D03*
%TD*%
D49*
%TO.C,X1*%
X69077500Y-112750000D03*
D50*
X69077500Y-110250000D03*
X67077500Y-110250000D03*
X67077500Y-112750000D03*
D51*
X64367500Y-117520000D03*
X64367500Y-105480000D03*
%TD*%
D11*
%TO.C,R10*%
X115350000Y-130250000D03*
X117000000Y-130250000D03*
%TD*%
D31*
%TO.C,R13*%
X91325000Y-147000000D03*
X89675000Y-147000000D03*
%TD*%
D52*
%TO.C,C7*%
X133500000Y-110000000D03*
X132860000Y-110000000D03*
%TD*%
D43*
%TO.C,J7*%
X110000000Y-145250000D03*
D44*
X110000000Y-144250000D03*
X110000000Y-143250000D03*
X110000000Y-142250000D03*
X110000000Y-141250000D03*
X110000000Y-140250000D03*
X110000000Y-139250000D03*
X110000000Y-138250000D03*
%TD*%
D11*
%TO.C,R14*%
X136745000Y-96750000D03*
X138395000Y-96750000D03*
%TD*%
%TO.C,R5*%
X107068750Y-121500000D03*
X108718750Y-121500000D03*
%TD*%
D40*
%TO.C,C5*%
X81475000Y-137750000D03*
X83025000Y-137750000D03*
%TD*%
D47*
%TO.C,D4*%
X79000000Y-92750000D03*
X77425000Y-92750000D03*
%TD*%
D53*
%TO.C,U7*%
X157350000Y-124500000D03*
X157350000Y-125000000D03*
X157350000Y-125500000D03*
X157350000Y-126000000D03*
X157350000Y-126500000D03*
D54*
X158300000Y-127450000D03*
X158800000Y-127450000D03*
X159300000Y-127450000D03*
X159800000Y-127450000D03*
X160300000Y-127450000D03*
D53*
X161250000Y-126500000D03*
X161250000Y-126000000D03*
X161250000Y-125500000D03*
X161250000Y-125000000D03*
X161250000Y-124500000D03*
D54*
X160300000Y-123550000D03*
X159800000Y-123550000D03*
X159300000Y-123550000D03*
X158800000Y-123550000D03*
X158300000Y-123550000D03*
D55*
X159300000Y-125500000D03*
%TD*%
D27*
%TO.C,Z1*%
X79220000Y-108250000D03*
X80780000Y-108250000D03*
%TD*%
D24*
%TO.C,FB1*%
X89437500Y-110000000D03*
X91562500Y-110000000D03*
%TD*%
D30*
%TO.C,C10*%
X114750000Y-123250000D03*
X115390000Y-123250000D03*
%TD*%
D56*
%TO.C,U3*%
X143500000Y-91862500D03*
X142850000Y-91862500D03*
X142200000Y-91862500D03*
X142200000Y-93637500D03*
X142850000Y-93637500D03*
X143500000Y-93637500D03*
D57*
X142850000Y-92750000D03*
%TD*%
D19*
%TO.C,D2*%
X112962500Y-117500000D03*
X114537500Y-117500000D03*
%TD*%
D31*
%TO.C,R12*%
X96000000Y-147000000D03*
X94350000Y-147000000D03*
%TD*%
D58*
%TO.C,J1*%
X79000000Y-132540000D03*
X76460000Y-132540000D03*
X79000000Y-130000000D03*
X76460000Y-130000000D03*
X79000000Y-127460000D03*
X76460000Y-127460000D03*
%TD*%
M02*
