%TF.GenerationSoftware,KiCad,Pcbnew,8.0.8*%
%TF.CreationDate,2025-05-31T18:37:02+02:00*%
%TF.ProjectId,Arduino_pcb,41726475-696e-46f5-9f70-63622e6b6963,rev?*%
%TF.SameCoordinates,Original*%
%TF.FileFunction,Soldermask,Bot*%
%TF.FilePolarity,Negative*%
%FSLAX46Y46*%
G04 Gerber Fmt 4.6, Leading zero omitted, Abs format (unit mm)*
G04 Created by KiCad (PCBNEW 8.0.8) date 2025-05-31 18:37:02*
%MOMM*%
%LPD*%
G01*
G04 APERTURE LIST*
G04 Aperture macros list*
%AMRoundRect*
0 Rectangle with rounded corners*
0 $1 Rounding radius*
0 $2 $3 $4 $5 $6 $7 $8 $9 X,Y pos of 4 corners*
0 Add a 4 corners polygon primitive as box body*
4,1,4,$2,$3,$4,$5,$6,$7,$8,$9,$2,$3,0*
0 Add four circle primitives for the rounded corners*
1,1,$1+$1,$2,$3*
1,1,$1+$1,$4,$5*
1,1,$1+$1,$6,$7*
1,1,$1+$1,$8,$9*
0 Add four rect primitives between the rounded corners*
20,1,$1+$1,$2,$3,$4,$5,0*
20,1,$1+$1,$4,$5,$6,$7,0*
20,1,$1+$1,$6,$7,$8,$9,0*
20,1,$1+$1,$8,$9,$2,$3,0*%
%AMFreePoly0*
4,1,17,0.356937,0.810921,0.810921,0.356937,0.825800,0.321016,0.825800,-0.321016,0.810921,-0.356937,0.356937,-0.810921,0.321016,-0.825800,-0.321016,-0.825800,-0.356937,-0.810921,-0.810921,-0.356937,-0.825800,-0.321016,-0.825800,0.321016,-0.810921,0.356937,-0.356937,0.810921,-0.321016,0.825800,0.321016,0.825800,0.356937,0.810921,0.356937,0.810921,$1*%
G04 Aperture macros list end*
%ADD10R,1.600000X1.600000*%
%ADD11O,1.600000X1.600000*%
%ADD12R,1.350000X1.350000*%
%ADD13O,1.350000X1.350000*%
%ADD14FreePoly0,270.000000*%
%ADD15R,1.524000X2.524000*%
%ADD16O,1.524000X2.524000*%
%ADD17RoundRect,0.875000X-0.875000X-0.875000X0.875000X-0.875000X0.875000X0.875000X-0.875000X0.875000X0*%
%ADD18RoundRect,0.750000X-0.750000X-1.000000X0.750000X-1.000000X0.750000X1.000000X-0.750000X1.000000X0*%
%ADD19R,3.500000X3.500000*%
%ADD20R,0.850000X0.850000*%
%ADD21O,0.850000X0.850000*%
%ADD22R,1.700000X1.700000*%
%ADD23C,1.700000*%
%ADD24C,3.500000*%
%ADD25FreePoly0,90.000000*%
G04 APERTURE END LIST*
D10*
%TO.C,U2*%
X118420000Y-122000000D03*
D11*
X120960000Y-122000000D03*
X123500000Y-122000000D03*
X126040000Y-122000000D03*
X128580000Y-122000000D03*
X131120000Y-122000000D03*
X133660000Y-122000000D03*
X136200000Y-122000000D03*
X138740000Y-122000000D03*
X141280000Y-122000000D03*
X143820000Y-122000000D03*
X146360000Y-122000000D03*
X148900000Y-122000000D03*
X151440000Y-122000000D03*
X151440000Y-114380000D03*
X148900000Y-114380000D03*
X146360000Y-114380000D03*
X143820000Y-114380000D03*
X141280000Y-114380000D03*
X138740000Y-114380000D03*
X136200000Y-114380000D03*
X133660000Y-114380000D03*
X131120000Y-114380000D03*
X128580000Y-114380000D03*
X126040000Y-114380000D03*
X123500000Y-114380000D03*
X120960000Y-114380000D03*
X118420000Y-114380000D03*
%TD*%
D12*
%TO.C,J2*%
X84250000Y-129000000D03*
D13*
X86250000Y-129000000D03*
X84250000Y-131000000D03*
X86250000Y-131000000D03*
%TD*%
D14*
%TO.C,J3*%
X147210000Y-98210000D03*
X149750000Y-98210000D03*
X147210000Y-100750000D03*
X149750000Y-100750000D03*
X147210000Y-103290000D03*
X149750000Y-103290000D03*
%TD*%
D15*
%TO.C,AFF1*%
X148920000Y-147000000D03*
D16*
X151460000Y-147000000D03*
X154000000Y-147000000D03*
X156540000Y-147000000D03*
X159080000Y-147000000D03*
X159080000Y-131760000D03*
X156540000Y-131760000D03*
X154000000Y-131760000D03*
X151460000Y-131760000D03*
X148920000Y-131760000D03*
%TD*%
D17*
%TO.C,J8*%
X67500000Y-97492500D03*
D18*
X64500000Y-92792500D03*
D19*
X70500000Y-92792500D03*
%TD*%
D20*
%TO.C,J5*%
X121080000Y-130000000D03*
D21*
X122080000Y-130000000D03*
X123080000Y-130000000D03*
X124080000Y-130000000D03*
X125080000Y-130000000D03*
X126080000Y-130000000D03*
X127080000Y-130000000D03*
X128080000Y-130000000D03*
%TD*%
D20*
%TO.C,J4*%
X123580000Y-108000000D03*
D21*
X122580000Y-108000000D03*
X121580000Y-108000000D03*
X120580000Y-108000000D03*
X119580000Y-108000000D03*
X118580000Y-108000000D03*
%TD*%
D20*
%TO.C,J6*%
X152580000Y-107500000D03*
D21*
X151580000Y-107500000D03*
X150580000Y-107500000D03*
X149580000Y-107500000D03*
X148580000Y-107500000D03*
X147580000Y-107500000D03*
X146580000Y-107500000D03*
X145580000Y-107500000D03*
X144580000Y-107500000D03*
X143580000Y-107500000D03*
%TD*%
D22*
%TO.C,X1*%
X69077500Y-112750000D03*
D23*
X69077500Y-110250000D03*
X67077500Y-110250000D03*
X67077500Y-112750000D03*
D24*
X64367500Y-117520000D03*
X64367500Y-105480000D03*
%TD*%
D20*
%TO.C,J7*%
X110000000Y-145250000D03*
D21*
X110000000Y-144250000D03*
X110000000Y-143250000D03*
X110000000Y-142250000D03*
X110000000Y-141250000D03*
X110000000Y-140250000D03*
X110000000Y-139250000D03*
X110000000Y-138250000D03*
%TD*%
D25*
%TO.C,J1*%
X79000000Y-132540000D03*
X76460000Y-132540000D03*
X79000000Y-130000000D03*
X76460000Y-130000000D03*
X79000000Y-127460000D03*
X76460000Y-127460000D03*
%TD*%
M02*
