%TF.GenerationSoftware,KiCad,Pcbnew,8.0.8*%
%TF.CreationDate,2025-05-31T18:37:02+02:00*%
%TF.ProjectId,Arduino_pcb,41726475-696e-46f5-9f70-63622e6b6963,rev?*%
%TF.SameCoordinates,Original*%
%TF.FileFunction,Copper,L4,Bot*%
%TF.FilePolarity,Positive*%
%FSLAX46Y46*%
G04 Gerber Fmt 4.6, Leading zero omitted, Abs format (unit mm)*
G04 Created by KiCad (PCBNEW 8.0.8) date 2025-05-31 18:37:02*
%MOMM*%
%LPD*%
G01*
G04 APERTURE LIST*
G04 Aperture macros list*
%AMRoundRect*
0 Rectangle with rounded corners*
0 $1 Rounding radius*
0 $2 $3 $4 $5 $6 $7 $8 $9 X,Y pos of 4 corners*
0 Add a 4 corners polygon primitive as box body*
4,1,4,$2,$3,$4,$5,$6,$7,$8,$9,$2,$3,0*
0 Add four circle primitives for the rounded corners*
1,1,$1+$1,$2,$3*
1,1,$1+$1,$4,$5*
1,1,$1+$1,$6,$7*
1,1,$1+$1,$8,$9*
0 Add four rect primitives between the rounded corners*
20,1,$1+$1,$2,$3,$4,$5,0*
20,1,$1+$1,$4,$5,$6,$7,0*
20,1,$1+$1,$6,$7,$8,$9,0*
20,1,$1+$1,$8,$9,$2,$3,0*%
%AMOutline5P*
0 Free polygon, 5 corners , with rotation*
0 The origin of the aperture is its center*
0 number of corners: always 5*
0 $1 to $10 corner X, Y*
0 $11 Rotation angle, in degrees counterclockwise*
0 create outline with 5 corners*
4,1,5,$1,$2,$3,$4,$5,$6,$7,$8,$9,$10,$1,$2,$11*%
%AMOutline6P*
0 Free polygon, 6 corners , with rotation*
0 The origin of the aperture is its center*
0 number of corners: always 6*
0 $1 to $12 corner X, Y*
0 $13 Rotation angle, in degrees counterclockwise*
0 create outline with 6 corners*
4,1,6,$1,$2,$3,$4,$5,$6,$7,$8,$9,$10,$11,$12,$1,$2,$13*%
%AMOutline7P*
0 Free polygon, 7 corners , with rotation*
0 The origin of the aperture is its center*
0 number of corners: always 7*
0 $1 to $14 corner X, Y*
0 $15 Rotation angle, in degrees counterclockwise*
0 create outline with 7 corners*
4,1,7,$1,$2,$3,$4,$5,$6,$7,$8,$9,$10,$11,$12,$13,$14,$1,$2,$15*%
%AMOutline8P*
0 Free polygon, 8 corners , with rotation*
0 The origin of the aperture is its center*
0 number of corners: always 8*
0 $1 to $16 corner X, Y*
0 $17 Rotation angle, in degrees counterclockwise*
0 create outline with 8 corners*
4,1,8,$1,$2,$3,$4,$5,$6,$7,$8,$9,$10,$11,$12,$13,$14,$15,$16,$1,$2,$17*%
G04 Aperture macros list end*
%TA.AperFunction,ComponentPad*%
%ADD10R,1.600000X1.600000*%
%TD*%
%TA.AperFunction,ComponentPad*%
%ADD11O,1.600000X1.600000*%
%TD*%
%TA.AperFunction,ComponentPad*%
%ADD12R,1.350000X1.350000*%
%TD*%
%TA.AperFunction,ComponentPad*%
%ADD13O,1.350000X1.350000*%
%TD*%
%TA.AperFunction,ComponentPad*%
%ADD14Outline8P,-0.775000X0.321016X-0.321016X0.775000X0.321016X0.775000X0.775000X0.321016X0.775000X-0.321016X0.321016X-0.775000X-0.321016X-0.775000X-0.775000X-0.321016X270.000000*%
%TD*%
%TA.AperFunction,ComponentPad*%
%ADD15R,1.524000X2.524000*%
%TD*%
%TA.AperFunction,ComponentPad*%
%ADD16O,1.524000X2.524000*%
%TD*%
%TA.AperFunction,ComponentPad*%
%ADD17RoundRect,0.875000X-0.875000X-0.875000X0.875000X-0.875000X0.875000X0.875000X-0.875000X0.875000X0*%
%TD*%
%TA.AperFunction,ComponentPad*%
%ADD18RoundRect,0.750000X-0.750000X-1.000000X0.750000X-1.000000X0.750000X1.000000X-0.750000X1.000000X0*%
%TD*%
%TA.AperFunction,ComponentPad*%
%ADD19R,3.500000X3.500000*%
%TD*%
%TA.AperFunction,ComponentPad*%
%ADD20R,0.850000X0.850000*%
%TD*%
%TA.AperFunction,ComponentPad*%
%ADD21O,0.850000X0.850000*%
%TD*%
%TA.AperFunction,ComponentPad*%
%ADD22R,1.700000X1.700000*%
%TD*%
%TA.AperFunction,ComponentPad*%
%ADD23C,1.700000*%
%TD*%
%TA.AperFunction,ComponentPad*%
%ADD24C,3.500000*%
%TD*%
%TA.AperFunction,ComponentPad*%
%ADD25Outline8P,-0.775000X0.321016X-0.321016X0.775000X0.321016X0.775000X0.775000X0.321016X0.775000X-0.321016X0.321016X-0.775000X-0.321016X-0.775000X-0.775000X-0.321016X90.000000*%
%TD*%
%TA.AperFunction,ViaPad*%
%ADD26C,0.600000*%
%TD*%
%TA.AperFunction,Conductor*%
%ADD27C,0.300000*%
%TD*%
%TA.AperFunction,Conductor*%
%ADD28C,0.200000*%
%TD*%
G04 APERTURE END LIST*
D10*
%TO.P,U2,1,~{RESET}/PC6*%
%TO.N,/RESET*%
X118420000Y-122000000D03*
D11*
%TO.P,U2,2,PD0*%
%TO.N,/IO0*%
X120960000Y-122000000D03*
%TO.P,U2,3,PD1*%
%TO.N,/IO1*%
X123500000Y-122000000D03*
%TO.P,U2,4,PD2*%
%TO.N,/IO2*%
X126040000Y-122000000D03*
%TO.P,U2,5,PD3*%
%TO.N,/IO3*%
X128580000Y-122000000D03*
%TO.P,U2,6,PD4*%
%TO.N,/IO4*%
X131120000Y-122000000D03*
%TO.P,U2,7,VCC*%
%TO.N,+5V*%
X133660000Y-122000000D03*
%TO.P,U2,8,GND*%
%TO.N,GND*%
X136200000Y-122000000D03*
%TO.P,U2,9,XTAL1/PB6*%
%TO.N,Net-(U2-XTAL1{slash}PB6)*%
X138740000Y-122000000D03*
%TO.P,U2,10,XTAL2/PB7*%
%TO.N,Net-(U2-XTAL2{slash}PB7)*%
X141280000Y-122000000D03*
%TO.P,U2,11,PD5*%
%TO.N,/IO5*%
X143820000Y-122000000D03*
%TO.P,U2,12,PD6*%
%TO.N,/IO6*%
X146360000Y-122000000D03*
%TO.P,U2,13,PD7*%
%TO.N,/IO7*%
X148900000Y-122000000D03*
%TO.P,U2,14,PB0*%
%TO.N,/IO8*%
X151440000Y-122000000D03*
%TO.P,U2,15,PB1*%
%TO.N,/IO9*%
X151440000Y-114380000D03*
%TO.P,U2,16,PB2*%
%TO.N,/SS*%
X148900000Y-114380000D03*
%TO.P,U2,17,PB3*%
%TO.N,/MOSI*%
X146360000Y-114380000D03*
%TO.P,U2,18,PB4*%
%TO.N,/MISO*%
X143820000Y-114380000D03*
%TO.P,U2,19,PB5*%
%TO.N,/SCK*%
X141280000Y-114380000D03*
%TO.P,U2,20,AVCC*%
%TO.N,/AVCC*%
X138740000Y-114380000D03*
%TO.P,U2,21,AREF*%
%TO.N,/AREF*%
X136200000Y-114380000D03*
%TO.P,U2,22,AGND*%
%TO.N,GND*%
X133660000Y-114380000D03*
%TO.P,U2,23,PC0*%
%TO.N,/AD0*%
X131120000Y-114380000D03*
%TO.P,U2,24,PC1*%
%TO.N,/AD1*%
X128580000Y-114380000D03*
%TO.P,U2,25,PC2*%
%TO.N,/AD2*%
X126040000Y-114380000D03*
%TO.P,U2,26,PC3*%
%TO.N,/AD3*%
X123500000Y-114380000D03*
%TO.P,U2,27,PC4*%
%TO.N,/SDA{slash}AD4*%
X120960000Y-114380000D03*
%TO.P,U2,28,PC5*%
%TO.N,/SCL{slash}AD5*%
X118420000Y-114380000D03*
%TD*%
D12*
%TO.P,J2,1,Pin_1*%
%TO.N,/PB4*%
X84250000Y-129000000D03*
D13*
%TO.P,J2,2,Pin_2*%
%TO.N,/PB5*%
X86250000Y-129000000D03*
%TO.P,J2,3,Pin_3*%
%TO.N,/PB6*%
X84250000Y-131000000D03*
%TO.P,J2,4,Pin_4*%
%TO.N,/PB7*%
X86250000Y-131000000D03*
%TD*%
D14*
%TO.P,J3,1,~{MCLR}/VPP*%
%TO.N,/RESET*%
X147210000Y-98210000D03*
%TO.P,J3,2,VDD*%
%TO.N,+5V*%
X149750000Y-98210000D03*
%TO.P,J3,3,VSS*%
%TO.N,GND*%
X147210000Y-100750000D03*
%TO.P,J3,4,PGD/ICSPDAT*%
%TO.N,/MOSI*%
X149750000Y-100750000D03*
%TO.P,J3,5,PGC/ICSPCLK*%
%TO.N,/SCK*%
X147210000Y-103290000D03*
%TO.P,J3,6,MISO*%
%TO.N,/MISO*%
X149750000Y-103290000D03*
%TD*%
D15*
%TO.P,AFF1,1,e*%
%TO.N,/DISP E*%
X148920000Y-147000000D03*
D16*
%TO.P,AFF1,2,d*%
%TO.N,/DISP D*%
X151460000Y-147000000D03*
%TO.P,AFF1,3,C.A.*%
%TO.N,unconnected-(AFF1-C.A.-Pad3)*%
X154000000Y-147000000D03*
%TO.P,AFF1,4,c*%
%TO.N,/DISP C*%
X156540000Y-147000000D03*
%TO.P,AFF1,5,DP*%
%TO.N,/DISP DP*%
X159080000Y-147000000D03*
%TO.P,AFF1,6,b*%
%TO.N,/DISP B*%
X159080000Y-131760000D03*
%TO.P,AFF1,7,a*%
%TO.N,/DISP A*%
X156540000Y-131760000D03*
%TO.P,AFF1,8,C.A.*%
%TO.N,+5V*%
X154000000Y-131760000D03*
%TO.P,AFF1,9,f*%
%TO.N,/DISP F*%
X151460000Y-131760000D03*
%TO.P,AFF1,10,g*%
%TO.N,/DISP G*%
X148920000Y-131760000D03*
%TD*%
D17*
%TO.P,J8,3*%
%TO.N,N/C*%
X67500000Y-97492500D03*
D18*
%TO.P,J8,2*%
%TO.N,GND*%
X64500000Y-92792500D03*
D19*
%TO.P,J8,1*%
%TO.N,Net-(D4-A)*%
X70500000Y-92792500D03*
%TD*%
D20*
%TO.P,J5,1,Pin_1*%
%TO.N,/IO0*%
X121080000Y-130000000D03*
D21*
%TO.P,J5,2,Pin_2*%
%TO.N,/IO1*%
X122080000Y-130000000D03*
%TO.P,J5,3,Pin_3*%
%TO.N,/IO2*%
X123080000Y-130000000D03*
%TO.P,J5,4,Pin_4*%
%TO.N,/IO3*%
X124080000Y-130000000D03*
%TO.P,J5,5,Pin_5*%
%TO.N,/IO4*%
X125080000Y-130000000D03*
%TO.P,J5,6,Pin_6*%
%TO.N,/IO5*%
X126080000Y-130000000D03*
%TO.P,J5,7,Pin_7*%
%TO.N,/IO6*%
X127080000Y-130000000D03*
%TO.P,J5,8,Pin_8*%
%TO.N,/IO7*%
X128080000Y-130000000D03*
%TD*%
D20*
%TO.P,J4,1,Pin_1*%
%TO.N,/AD0*%
X123580000Y-108000000D03*
D21*
%TO.P,J4,2,Pin_2*%
%TO.N,/AD1*%
X122580000Y-108000000D03*
%TO.P,J4,3,Pin_3*%
%TO.N,/AD2*%
X121580000Y-108000000D03*
%TO.P,J4,4,Pin_4*%
%TO.N,/AD3*%
X120580000Y-108000000D03*
%TO.P,J4,5,Pin_5*%
%TO.N,/SDA{slash}AD4*%
X119580000Y-108000000D03*
%TO.P,J4,6,Pin_6*%
%TO.N,/SCL{slash}AD5*%
X118580000Y-108000000D03*
%TD*%
D20*
%TO.P,J6,1,Pin_1*%
%TO.N,/IO8*%
X152580000Y-107500000D03*
D21*
%TO.P,J6,2,Pin_2*%
%TO.N,/IO9*%
X151580000Y-107500000D03*
%TO.P,J6,3,Pin_3*%
%TO.N,/SS*%
X150580000Y-107500000D03*
%TO.P,J6,4,Pin_4*%
%TO.N,/MOSI*%
X149580000Y-107500000D03*
%TO.P,J6,5,Pin_5*%
%TO.N,/MISO*%
X148580000Y-107500000D03*
%TO.P,J6,6,Pin_6*%
%TO.N,/SCK*%
X147580000Y-107500000D03*
%TO.P,J6,7,Pin_7*%
%TO.N,GND*%
X146580000Y-107500000D03*
%TO.P,J6,8,Pin_8*%
%TO.N,/AREF*%
X145580000Y-107500000D03*
%TO.P,J6,9,Pin_9*%
%TO.N,/SDA{slash}AD4*%
X144580000Y-107500000D03*
%TO.P,J6,10,Pin_10*%
%TO.N,/SCL{slash}AD5*%
X143580000Y-107500000D03*
%TD*%
D22*
%TO.P,X1,1,VBUS*%
%TO.N,Net-(X1-VBUS)*%
X69077500Y-112750000D03*
D23*
%TO.P,X1,2,D-*%
%TO.N,Net-(X1-D-)*%
X69077500Y-110250000D03*
%TO.P,X1,3,D+*%
%TO.N,Net-(X1-D+)*%
X67077500Y-110250000D03*
%TO.P,X1,4,GND*%
%TO.N,/UGND*%
X67077500Y-112750000D03*
D24*
%TO.P,X1,5,Shield*%
%TO.N,Net-(X1-Shield)*%
X64367500Y-117520000D03*
X64367500Y-105480000D03*
%TD*%
D20*
%TO.P,J7,1,Pin_1*%
%TO.N,unconnected-(J7-Pin_1-Pad1)*%
X110000000Y-145250000D03*
D21*
%TO.P,J7,2,Pin_2*%
%TO.N,+5V*%
X110000000Y-144250000D03*
%TO.P,J7,3,Pin_3*%
%TO.N,/RESET*%
X110000000Y-143250000D03*
%TO.P,J7,4,Pin_4*%
%TO.N,/+3V3*%
X110000000Y-142250000D03*
%TO.P,J7,5,Pin_5*%
%TO.N,+5V*%
X110000000Y-141250000D03*
%TO.P,J7,6,Pin_6*%
%TO.N,GND*%
X110000000Y-140250000D03*
%TO.P,J7,7,Pin_7*%
X110000000Y-139250000D03*
%TO.P,J7,8,Pin_8*%
%TO.N,/VIN*%
X110000000Y-138250000D03*
%TD*%
D25*
%TO.P,J1,1,~{MCLR}/VPP*%
%TO.N,/RESET2*%
X79000000Y-132540000D03*
%TO.P,J1,2,VDD*%
%TO.N,+5V*%
X76460000Y-132540000D03*
%TO.P,J1,3,VSS*%
%TO.N,GND*%
X79000000Y-130000000D03*
%TO.P,J1,4,PGD/ICSPDAT*%
%TO.N,/MOSI2*%
X76460000Y-130000000D03*
%TO.P,J1,5,PGC/ICSPCLK*%
%TO.N,/SCK2*%
X79000000Y-127460000D03*
%TO.P,J1,6,MISO*%
%TO.N,/MISO2*%
X76460000Y-127460000D03*
%TD*%
D26*
%TO.N,/IO8*%
X154000000Y-119250000D03*
%TO.N,Net-(X1-Shield)*%
X83000000Y-111500000D03*
%TO.N,GND*%
X140750000Y-109500000D03*
X85845619Y-143037099D03*
%TO.N,+5V*%
X125750000Y-97750000D03*
X101000000Y-123750000D03*
X156031248Y-126269513D03*
%TO.N,GND*%
X156250000Y-125500000D03*
%TO.N,+5V*%
X160250000Y-122250000D03*
X155750000Y-129000000D03*
%TO.N,/DISP C*%
X161250000Y-128500000D03*
%TO.N,/DISP E*%
X164247017Y-125758949D03*
%TO.N,/DISP F*%
X164500000Y-125000000D03*
%TO.N,/DISP G*%
X162500000Y-124000000D03*
%TO.N,/SCL{slash}AD5*%
X158750000Y-122250000D03*
%TO.N,GND*%
X134000000Y-128750000D03*
X146250000Y-127000000D03*
%TO.N,+5V*%
X115500000Y-101500000D03*
%TO.N,/SCL{slash}AD5*%
X143500000Y-109000000D03*
%TO.N,/SDA{slash}AD4*%
X144500000Y-109250000D03*
%TO.N,GND*%
X146500000Y-106000000D03*
X133660000Y-112910000D03*
X132000000Y-110000000D03*
%TO.N,+5V*%
X133500000Y-109250000D03*
X135000000Y-106500000D03*
X135750000Y-111500000D03*
%TO.N,GND*%
X135000000Y-98500000D03*
X143750000Y-100750000D03*
%TO.N,+5V*%
X149750000Y-96750000D03*
%TO.N,GND*%
X143250000Y-90750000D03*
X142500000Y-90750000D03*
%TO.N,+5V*%
X110000000Y-118750000D03*
X113000000Y-118750000D03*
X110250000Y-121500000D03*
%TO.N,GND*%
X108750000Y-129750000D03*
X111500000Y-139750000D03*
X106500000Y-138000000D03*
X104000000Y-138750000D03*
%TO.N,+5V*%
X105000000Y-140250000D03*
X108250000Y-141250000D03*
%TO.N,GND*%
X88250000Y-147000000D03*
%TO.N,+5V*%
X76500000Y-134250000D03*
%TO.N,GND*%
X80750000Y-130000000D03*
%TO.N,+5V*%
X86500000Y-104500000D03*
%TO.N,GND*%
X104000000Y-108750000D03*
%TO.N,/UGND*%
X88500000Y-137750000D03*
%TO.N,GND*%
X98500000Y-130500000D03*
X84500000Y-137750000D03*
%TO.N,+5V*%
X74500000Y-143750000D03*
X80000000Y-147000000D03*
%TO.N,GND*%
X82000000Y-147000000D03*
X84250000Y-142300000D03*
%TO.N,+5V*%
X86315251Y-143684749D03*
%TO.N,/MOSI2*%
X92000000Y-126500000D03*
X91250000Y-125000000D03*
%TO.N,/RESET*%
X112500000Y-126250000D03*
%TO.N,/+3V3*%
X88000000Y-146000000D03*
%TO.N,Net-(U1-AVCC)*%
X100500000Y-135000000D03*
X99500000Y-129750000D03*
%TO.N,/RD-*%
X90250000Y-117500000D03*
X95430000Y-134750000D03*
%TO.N,/RD+*%
X87000000Y-115750000D03*
X94500000Y-134750000D03*
%TO.N,Net-(X1-VBUS)*%
X93500000Y-136500000D03*
X73000000Y-118250000D03*
%TO.N,/PB4*%
X91000000Y-127750000D03*
%TO.N,/PB5*%
X91000000Y-128750000D03*
%TO.N,/PB6*%
X89750000Y-131750000D03*
%TO.N,/PB7*%
X91000000Y-131000000D03*
%TO.N,/UGND*%
X93750000Y-112000000D03*
%TO.N,Net-(X1-Shield)*%
X83250000Y-108250000D03*
%TO.N,+5V*%
X111675000Y-90500000D03*
X111675000Y-88500000D03*
%TO.N,GND*%
X122425000Y-89500000D03*
X83000000Y-88250000D03*
%TO.N,+5V*%
X83000000Y-90500000D03*
X98250000Y-97500000D03*
X98250000Y-92500000D03*
%TO.N,GND*%
X86500000Y-98000000D03*
X86500000Y-101250000D03*
X119000000Y-148500000D03*
X126000000Y-148500000D03*
X133500000Y-148500000D03*
%TO.N,+5V*%
X133580000Y-124000000D03*
%TO.N,GND*%
X136080000Y-124000000D03*
%TO.N,/IO0*%
X119080000Y-128500000D03*
%TO.N,/IO1*%
X123580000Y-124000000D03*
%TD*%
D27*
%TO.N,/IO8*%
X154000000Y-119440000D02*
X154000000Y-119250000D01*
X151440000Y-122000000D02*
X154000000Y-119440000D01*
%TO.N,Net-(X1-Shield)*%
X83000000Y-108500000D02*
X83250000Y-108250000D01*
X83000000Y-111500000D02*
X83000000Y-108500000D01*
%TO.N,+5V*%
X154000000Y-130750000D02*
X155750000Y-129000000D01*
X154000000Y-131760000D02*
X154000000Y-130750000D01*
%TO.N,/DISP C*%
X161250000Y-131946000D02*
X161250000Y-128500000D01*
X147808000Y-145388000D02*
X161250000Y-131946000D01*
X147808000Y-148612000D02*
X147808000Y-145388000D01*
X154928000Y-148612000D02*
X147808000Y-148612000D01*
X156540000Y-147000000D02*
X154928000Y-148612000D01*
%TO.N,/DISP E*%
X163500000Y-126505966D02*
X163500000Y-132420000D01*
X164247017Y-125758949D02*
X163500000Y-126505966D01*
X163500000Y-132420000D02*
X148920000Y-147000000D01*
%TO.N,/DISP F*%
X164500000Y-125000000D02*
X158220000Y-125000000D01*
X158220000Y-125000000D02*
X151460000Y-131760000D01*
%TO.N,/DISP G*%
X162500000Y-124000000D02*
X156680000Y-124000000D01*
X156680000Y-124000000D02*
X148920000Y-131760000D01*
%TO.N,/SCL{slash}AD5*%
X118420000Y-114380000D02*
X120540000Y-116500000D01*
X120540000Y-116500000D02*
X153000000Y-116500000D01*
X153000000Y-116500000D02*
X158750000Y-122250000D01*
X142950000Y-109000000D02*
X141100000Y-110850000D01*
X143500000Y-109000000D02*
X142950000Y-109000000D01*
X121950000Y-110850000D02*
X141100000Y-110850000D01*
X118420000Y-114380000D02*
X121950000Y-110850000D01*
%TO.N,/SDA{slash}AD4*%
X123190000Y-112150000D02*
X120960000Y-114380000D01*
X141600000Y-112150000D02*
X123190000Y-112150000D01*
X144500000Y-109250000D02*
X141600000Y-112150000D01*
%TO.N,GND*%
X111000000Y-139750000D02*
X111500000Y-139750000D01*
X111000000Y-139750000D02*
X111000000Y-140000000D01*
X111000000Y-139500000D02*
X111000000Y-139750000D01*
X111000000Y-140000000D02*
X110750000Y-140250000D01*
X110750000Y-139250000D02*
X111000000Y-139500000D01*
X110000000Y-139250000D02*
X110750000Y-139250000D01*
X110750000Y-140250000D02*
X110000000Y-140250000D01*
%TO.N,+5V*%
X110000000Y-141250000D02*
X108250000Y-141250000D01*
X76460000Y-134210000D02*
X76500000Y-134250000D01*
X76460000Y-132540000D02*
X76460000Y-134210000D01*
%TO.N,GND*%
X79000000Y-130000000D02*
X80750000Y-130000000D01*
%TO.N,/UGND*%
X88000000Y-137750000D02*
X88500000Y-137750000D01*
X82500000Y-129369008D02*
X82500000Y-134750000D01*
X67630992Y-114500000D02*
X82500000Y-129369008D01*
X82500000Y-134750000D02*
X85000000Y-134750000D01*
X67625419Y-114500000D02*
X67630992Y-114500000D01*
X85000000Y-134750000D02*
X88000000Y-137750000D01*
%TO.N,Net-(U1-AVCC)*%
X100500000Y-130750000D02*
X100500000Y-135000000D01*
X99500000Y-129750000D02*
X100500000Y-130750000D01*
%TO.N,/MOSI2*%
X91250000Y-125750000D02*
X92000000Y-126500000D01*
X91250000Y-125000000D02*
X91250000Y-125750000D01*
%TO.N,/RESET*%
X112500000Y-141351040D02*
X112500000Y-126250000D01*
X110601040Y-143250000D02*
X112500000Y-141351040D01*
X110000000Y-143250000D02*
X110601040Y-143250000D01*
%TO.N,/+3V3*%
X102500000Y-146000000D02*
X88000000Y-146000000D01*
X106250000Y-142250000D02*
X102500000Y-146000000D01*
X110000000Y-142250000D02*
X106250000Y-142250000D01*
%TO.N,/RD-*%
X95430000Y-134750000D02*
X95430000Y-122680000D01*
X95430000Y-122680000D02*
X90250000Y-117500000D01*
%TO.N,/RD+*%
X94500000Y-123250000D02*
X87000000Y-115750000D01*
X94500000Y-134750000D02*
X94500000Y-123250000D01*
%TO.N,Net-(X1-VBUS)*%
X93500000Y-129330761D02*
X82419239Y-118250000D01*
X93500000Y-136500000D02*
X93500000Y-129330761D01*
X82419239Y-118250000D02*
X73000000Y-118250000D01*
%TO.N,/PB4*%
X85250000Y-127750000D02*
X91000000Y-127750000D01*
X84250000Y-128750000D02*
X85250000Y-127750000D01*
X84250000Y-129000000D02*
X84250000Y-128750000D01*
%TO.N,/PB5*%
X86500000Y-128750000D02*
X91000000Y-128750000D01*
X86250000Y-129000000D02*
X86500000Y-128750000D01*
X86500000Y-129250000D02*
X86250000Y-129000000D01*
%TO.N,/PB7*%
X91000000Y-131000000D02*
X86250000Y-131000000D01*
%TO.N,/PB6*%
X88500000Y-133000000D02*
X89750000Y-131750000D01*
X84500000Y-133000000D02*
X88500000Y-133000000D01*
X84250000Y-131000000D02*
X84250000Y-132750000D01*
X84250000Y-132750000D02*
X84500000Y-133000000D01*
%TO.N,/UGND*%
X91250000Y-114500000D02*
X93750000Y-112000000D01*
X68500000Y-114500000D02*
X91250000Y-114500000D01*
X67625419Y-114500000D02*
X68500000Y-114500000D01*
X67077500Y-113952081D02*
X67625419Y-114500000D01*
X67077500Y-112750000D02*
X67077500Y-113952081D01*
%TO.N,Net-(X1-Shield)*%
X64367500Y-117520000D02*
X64367500Y-105480000D01*
X80480000Y-105480000D02*
X83250000Y-108250000D01*
X64367500Y-105480000D02*
X80480000Y-105480000D01*
%TO.N,+5V*%
X133660000Y-123920000D02*
X133580000Y-124000000D01*
X133660000Y-122000000D02*
X133660000Y-122420000D01*
X133660000Y-122000000D02*
X133660000Y-123920000D01*
%TO.N,GND*%
X136200000Y-123880000D02*
X136080000Y-124000000D01*
X136200000Y-122000000D02*
X136200000Y-123880000D01*
%TO.N,/IO3*%
X124080000Y-126500000D02*
X124080000Y-130000000D01*
X128580000Y-122000000D02*
X124080000Y-126500000D01*
%TO.N,/IO5*%
X130080000Y-125500000D02*
X126080000Y-129500000D01*
X143820000Y-122000000D02*
X140320000Y-125500000D01*
D28*
X126080000Y-129398960D02*
X126080000Y-130000000D01*
D27*
X126080000Y-129500000D02*
X126080000Y-130000000D01*
X140320000Y-125500000D02*
X130080000Y-125500000D01*
%TO.N,/IO0*%
X120960000Y-129880000D02*
X121080000Y-130000000D01*
X120960000Y-128500000D02*
X120960000Y-129880000D01*
X120960000Y-122000000D02*
X120960000Y-128500000D01*
X119080000Y-128500000D02*
X120960000Y-128500000D01*
%TO.N,/IO2*%
X123080000Y-126500000D02*
X123080000Y-130000000D01*
X126040000Y-123540000D02*
X123080000Y-126500000D01*
X126040000Y-122000000D02*
X126040000Y-123540000D01*
%TO.N,/IO6*%
X127080000Y-129398960D02*
X127080000Y-130000000D01*
X146360000Y-122000000D02*
X141860000Y-126500000D01*
X131080000Y-127000000D02*
X129478960Y-127000000D01*
X141860000Y-126500000D02*
X131580000Y-126500000D01*
X129478960Y-127000000D02*
X127080000Y-129398960D01*
X131580000Y-126500000D02*
X131080000Y-127000000D01*
%TO.N,/IO4*%
X125080000Y-128040000D02*
X125080000Y-130000000D01*
X131120000Y-122000000D02*
X125080000Y-128040000D01*
%TO.N,/IO1*%
X122080000Y-124000000D02*
X122080000Y-130000000D01*
X123500000Y-122000000D02*
X122080000Y-123420000D01*
X123580000Y-124000000D02*
X122080000Y-124000000D01*
X122080000Y-123420000D02*
X122080000Y-124000000D01*
%TO.N,/IO7*%
X148900000Y-122000000D02*
X140900000Y-130000000D01*
X140900000Y-130000000D02*
X128080000Y-130000000D01*
%TD*%
%TA.AperFunction,Conductor*%
%TO.N,/IO8*%
G36*
X152467202Y-120765512D02*
G01*
X152470627Y-120767887D01*
X152672112Y-120969372D01*
X152675539Y-120977645D01*
X152674797Y-120981746D01*
X152183344Y-122294816D01*
X152177234Y-122301363D01*
X152168285Y-122301673D01*
X152167921Y-122301530D01*
X151443787Y-122002562D01*
X151437448Y-121996237D01*
X151437437Y-121996212D01*
X151138469Y-121272076D01*
X151138480Y-121263123D01*
X151144819Y-121256798D01*
X151145159Y-121256664D01*
X152458255Y-120765202D01*
X152467202Y-120765512D01*
G37*
%TD.AperFunction*%
%TD*%
%TA.AperFunction,Conductor*%
%TO.N,/IO8*%
G36*
X153735175Y-119140261D02*
G01*
X153998517Y-119248393D01*
X154002373Y-119250970D01*
X154203682Y-119453626D01*
X154207081Y-119461911D01*
X154203627Y-119470173D01*
X154203422Y-119470371D01*
X153810451Y-119842127D01*
X153802086Y-119845324D01*
X153794137Y-119841901D01*
X153594809Y-119642573D01*
X153591382Y-119634300D01*
X153591770Y-119631312D01*
X153634340Y-119470173D01*
X153719427Y-119148097D01*
X153724852Y-119140975D01*
X153733726Y-119139775D01*
X153735175Y-119140261D01*
G37*
%TD.AperFunction*%
%TD*%
%TA.AperFunction,Conductor*%
%TO.N,Net-(X1-Shield)*%
G36*
X82985954Y-108140581D02*
G01*
X83247815Y-108248103D01*
X83251663Y-108250671D01*
X83453504Y-108453463D01*
X83456911Y-108461744D01*
X83453465Y-108470010D01*
X83453090Y-108470367D01*
X83153348Y-108743397D01*
X83145469Y-108746447D01*
X82864285Y-108746447D01*
X82856012Y-108743020D01*
X82852585Y-108734747D01*
X82852814Y-108732442D01*
X82949630Y-108250671D01*
X82970041Y-108149098D01*
X82975031Y-108141664D01*
X82983817Y-108139934D01*
X82985954Y-108140581D01*
G37*
%TD.AperFunction*%
%TD*%
%TA.AperFunction,Conductor*%
%TO.N,Net-(X1-Shield)*%
G36*
X83149244Y-110903427D02*
G01*
X83152289Y-110908734D01*
X83274584Y-111375354D01*
X83273366Y-111384225D01*
X83267777Y-111389116D01*
X83004511Y-111499115D01*
X82995556Y-111499142D01*
X82995489Y-111499115D01*
X82732222Y-111389116D01*
X82725910Y-111382764D01*
X82725415Y-111375354D01*
X82847711Y-110908734D01*
X82853124Y-110901600D01*
X82859029Y-110900000D01*
X83140971Y-110900000D01*
X83149244Y-110903427D01*
G37*
%TD.AperFunction*%
%TD*%
%TA.AperFunction,Conductor*%
%TO.N,+5V*%
G36*
X154651129Y-129900741D02*
G01*
X154852578Y-130102190D01*
X154856005Y-130110463D01*
X154855989Y-130111072D01*
X154762705Y-131901192D01*
X154758852Y-131909275D01*
X154750412Y-131912267D01*
X154748705Y-131912051D01*
X154006316Y-131762125D01*
X153998885Y-131757129D01*
X153997364Y-131753806D01*
X153673527Y-130595117D01*
X153674600Y-130586227D01*
X153678001Y-130582444D01*
X154636066Y-129899486D01*
X154644790Y-129897475D01*
X154651129Y-129900741D01*
G37*
%TD.AperFunction*%
%TD*%
%TA.AperFunction,Conductor*%
%TO.N,+5V*%
G36*
X155482243Y-128889057D02*
G01*
X155665011Y-128964105D01*
X155746184Y-128997436D01*
X155752536Y-129003748D01*
X155752563Y-129003815D01*
X155860941Y-129267754D01*
X155860914Y-129276709D01*
X155856023Y-129282298D01*
X155439596Y-129525773D01*
X155430725Y-129526991D01*
X155425418Y-129523946D01*
X155226053Y-129324581D01*
X155222626Y-129316308D01*
X155224224Y-129310407D01*
X155467702Y-128893974D01*
X155474835Y-128888563D01*
X155482243Y-128889057D01*
G37*
%TD.AperFunction*%
%TD*%
%TA.AperFunction,Conductor*%
%TO.N,/DISP C*%
G36*
X161491497Y-128599902D02*
G01*
X161517777Y-128610883D01*
X161524089Y-128617235D01*
X161524584Y-128624645D01*
X161402289Y-129091266D01*
X161396876Y-129098400D01*
X161390971Y-129100000D01*
X161109029Y-129100000D01*
X161100756Y-129096573D01*
X161097711Y-129091266D01*
X160975415Y-128624645D01*
X160976633Y-128615774D01*
X160982221Y-128610883D01*
X161245490Y-128500883D01*
X161254444Y-128500857D01*
X161491497Y-128599902D01*
G37*
%TD.AperFunction*%
%TD*%
%TA.AperFunction,Conductor*%
%TO.N,/DISP C*%
G36*
X156532393Y-146995860D02*
G01*
X156538732Y-147002184D01*
X156539527Y-147008208D01*
X156377628Y-148232219D01*
X156373146Y-148239972D01*
X156367465Y-148242297D01*
X155394469Y-148362629D01*
X155385838Y-148360243D01*
X155384760Y-148359290D01*
X155182175Y-148156705D01*
X155178748Y-148148432D01*
X155179621Y-148143997D01*
X155773552Y-146695219D01*
X155779859Y-146688867D01*
X155788811Y-146688834D01*
X156532393Y-146995860D01*
G37*
%TD.AperFunction*%
%TD*%
%TA.AperFunction,Conductor*%
%TO.N,/DISP E*%
G36*
X163979260Y-125648006D02*
G01*
X164162028Y-125723054D01*
X164243201Y-125756385D01*
X164249553Y-125762697D01*
X164249580Y-125762764D01*
X164357958Y-126026703D01*
X164357931Y-126035658D01*
X164353040Y-126041247D01*
X163936613Y-126284722D01*
X163927742Y-126285940D01*
X163922435Y-126282895D01*
X163723070Y-126083530D01*
X163719643Y-126075257D01*
X163721241Y-126069356D01*
X163964719Y-125652923D01*
X163971852Y-125647512D01*
X163979260Y-125648006D01*
G37*
%TD.AperFunction*%
%TD*%
%TA.AperFunction,Conductor*%
%TO.N,/DISP E*%
G36*
X150117630Y-145596167D02*
G01*
X150118888Y-145597258D01*
X150321288Y-145799658D01*
X150324715Y-145807931D01*
X150323775Y-145812525D01*
X149686539Y-147304997D01*
X149680139Y-147311260D01*
X149671314Y-147311217D01*
X148927727Y-147004189D01*
X148921388Y-146997865D01*
X148920616Y-146991678D01*
X149103103Y-145746641D01*
X149107692Y-145738956D01*
X149113012Y-145736760D01*
X150108956Y-145593949D01*
X150117630Y-145596167D01*
G37*
%TD.AperFunction*%
%TD*%
%TA.AperFunction,Conductor*%
%TO.N,/DISP F*%
G36*
X164384225Y-124726633D02*
G01*
X164389116Y-124732222D01*
X164499115Y-124995489D01*
X164499142Y-125004444D01*
X164499115Y-125004511D01*
X164389116Y-125267777D01*
X164382764Y-125274089D01*
X164375353Y-125274584D01*
X164362260Y-125271152D01*
X164361931Y-125271060D01*
X164318979Y-125258449D01*
X164318978Y-125258449D01*
X164315296Y-125258449D01*
X164312330Y-125258067D01*
X163908734Y-125152289D01*
X163901600Y-125146876D01*
X163900000Y-125140971D01*
X163900000Y-124859028D01*
X163903427Y-124850755D01*
X163908731Y-124847711D01*
X164375354Y-124725415D01*
X164384225Y-124726633D01*
G37*
%TD.AperFunction*%
%TD*%
%TA.AperFunction,Conductor*%
%TO.N,/DISP F*%
G36*
X152614161Y-130399756D02*
G01*
X152615239Y-130400709D01*
X152817824Y-130603294D01*
X152821251Y-130611567D01*
X152820377Y-130616005D01*
X152226449Y-132064777D01*
X152220140Y-132071132D01*
X152211186Y-132071164D01*
X152211168Y-132071157D01*
X152211158Y-132071153D01*
X151467606Y-131764139D01*
X151461267Y-131757815D01*
X151460472Y-131751791D01*
X151622371Y-130527776D01*
X151626852Y-130520026D01*
X151632529Y-130517702D01*
X152605530Y-130397370D01*
X152614161Y-130399756D01*
G37*
%TD.AperFunction*%
%TD*%
%TA.AperFunction,Conductor*%
%TO.N,/DISP G*%
G36*
X162384225Y-123726633D02*
G01*
X162389116Y-123732222D01*
X162499115Y-123995489D01*
X162499142Y-124004444D01*
X162499115Y-124004511D01*
X162389116Y-124267777D01*
X162382764Y-124274089D01*
X162375354Y-124274584D01*
X161908734Y-124152289D01*
X161901600Y-124146876D01*
X161900000Y-124140971D01*
X161900000Y-123859028D01*
X161903427Y-123850755D01*
X161908731Y-123847711D01*
X162375354Y-123725415D01*
X162384225Y-123726633D01*
G37*
%TD.AperFunction*%
%TD*%
%TA.AperFunction,Conductor*%
%TO.N,/DISP G*%
G36*
X150074161Y-130399756D02*
G01*
X150075239Y-130400709D01*
X150277824Y-130603294D01*
X150281251Y-130611567D01*
X150280377Y-130616005D01*
X149686449Y-132064777D01*
X149680140Y-132071132D01*
X149671186Y-132071164D01*
X149671168Y-132071157D01*
X149671158Y-132071153D01*
X148927606Y-131764139D01*
X148921267Y-131757815D01*
X148920472Y-131751791D01*
X149082371Y-130527776D01*
X149086852Y-130520026D01*
X149092529Y-130517702D01*
X150065530Y-130397370D01*
X150074161Y-130399756D01*
G37*
%TD.AperFunction*%
%TD*%
%TA.AperFunction,Conductor*%
%TO.N,/SCL{slash}AD5*%
G36*
X119156876Y-114078480D02*
G01*
X119163201Y-114084819D01*
X119163344Y-114085183D01*
X119654797Y-115398253D01*
X119654487Y-115407202D01*
X119652112Y-115410627D01*
X119450627Y-115612112D01*
X119442354Y-115615539D01*
X119438253Y-115614797D01*
X118125183Y-115123344D01*
X118118636Y-115117234D01*
X118118326Y-115108285D01*
X118118448Y-115107972D01*
X118417438Y-114383785D01*
X118423762Y-114377448D01*
X118423764Y-114377446D01*
X119147923Y-114078469D01*
X119156876Y-114078480D01*
G37*
%TD.AperFunction*%
%TD*%
%TA.AperFunction,Conductor*%
%TO.N,/SCL{slash}AD5*%
G36*
X158439592Y-121724225D02*
G01*
X158856023Y-121967701D01*
X158861436Y-121974835D01*
X158860941Y-121982245D01*
X158752563Y-122246184D01*
X158746251Y-122252536D01*
X158746184Y-122252563D01*
X158482245Y-122360941D01*
X158473290Y-122360914D01*
X158467701Y-122356023D01*
X158224225Y-121939593D01*
X158223008Y-121930725D01*
X158226051Y-121925420D01*
X158425419Y-121726052D01*
X158433691Y-121722626D01*
X158439592Y-121724225D01*
G37*
%TD.AperFunction*%
%TD*%
%TA.AperFunction,Conductor*%
%TO.N,/SCL{slash}AD5*%
G36*
X143383681Y-108727017D02*
G01*
X143389477Y-108733084D01*
X143498827Y-108994793D01*
X143498854Y-109003748D01*
X143498835Y-109003795D01*
X143389520Y-109266757D01*
X143383180Y-109273081D01*
X143374633Y-109273230D01*
X143023098Y-109142310D01*
X143018908Y-109139619D01*
X142821640Y-108942351D01*
X142818213Y-108934078D01*
X142821640Y-108925805D01*
X142825966Y-108923064D01*
X143374738Y-108726580D01*
X143383681Y-108727017D01*
G37*
%TD.AperFunction*%
%TD*%
%TA.AperFunction,Conductor*%
%TO.N,/SCL{slash}AD5*%
G36*
X119447202Y-113145512D02*
G01*
X119450627Y-113147887D01*
X119652112Y-113349372D01*
X119655539Y-113357645D01*
X119654797Y-113361746D01*
X119163344Y-114674816D01*
X119157234Y-114681363D01*
X119148285Y-114681673D01*
X119147921Y-114681530D01*
X118423787Y-114382562D01*
X118417448Y-114376237D01*
X118417437Y-114376212D01*
X118118469Y-113652076D01*
X118118480Y-113643123D01*
X118124819Y-113636798D01*
X118125159Y-113636664D01*
X119438255Y-113145202D01*
X119447202Y-113145512D01*
G37*
%TD.AperFunction*%
%TD*%
%TA.AperFunction,Conductor*%
%TO.N,/SDA{slash}AD4*%
G36*
X121987202Y-113145512D02*
G01*
X121990627Y-113147887D01*
X122192112Y-113349372D01*
X122195539Y-113357645D01*
X122194797Y-113361746D01*
X121703344Y-114674816D01*
X121697234Y-114681363D01*
X121688285Y-114681673D01*
X121687921Y-114681530D01*
X120963787Y-114382562D01*
X120957448Y-114376237D01*
X120957437Y-114376212D01*
X120658469Y-113652076D01*
X120658480Y-113643123D01*
X120664819Y-113636798D01*
X120665159Y-113636664D01*
X121978255Y-113145202D01*
X121987202Y-113145512D01*
G37*
%TD.AperFunction*%
%TD*%
%TA.AperFunction,Conductor*%
%TO.N,/SDA{slash}AD4*%
G36*
X144232243Y-109139057D02*
G01*
X144415011Y-109214105D01*
X144496184Y-109247436D01*
X144502536Y-109253748D01*
X144502563Y-109253815D01*
X144610941Y-109517754D01*
X144610914Y-109526709D01*
X144606023Y-109532298D01*
X144189596Y-109775773D01*
X144180725Y-109776991D01*
X144175418Y-109773946D01*
X143976053Y-109574581D01*
X143972626Y-109566308D01*
X143974224Y-109560407D01*
X144217702Y-109143974D01*
X144224835Y-109138563D01*
X144232243Y-109139057D01*
G37*
%TD.AperFunction*%
%TD*%
%TA.AperFunction,Conductor*%
%TO.N,GND*%
G36*
X111389496Y-139484243D02*
G01*
X111390966Y-139486819D01*
X111497013Y-139743764D01*
X111497002Y-139752719D01*
X111494452Y-139756521D01*
X111294869Y-139955163D01*
X111286587Y-139958570D01*
X111279824Y-139956397D01*
X110879778Y-139671227D01*
X110875030Y-139663634D01*
X110877042Y-139654909D01*
X110884635Y-139650161D01*
X110886569Y-139650000D01*
X111149999Y-139650000D01*
X111150000Y-139650000D01*
X111373111Y-139481937D01*
X111381781Y-139479697D01*
X111389496Y-139484243D01*
G37*
%TD.AperFunction*%
%TD*%
%TA.AperFunction,Conductor*%
%TO.N,GND*%
G36*
X110173244Y-138862321D02*
G01*
X110173699Y-138862522D01*
X110911656Y-139207575D01*
X110917699Y-139214184D01*
X110917299Y-139223130D01*
X110914973Y-139226447D01*
X110716375Y-139425045D01*
X110712363Y-139427668D01*
X110173311Y-139638475D01*
X110164358Y-139638297D01*
X110158245Y-139632066D01*
X110001160Y-139253789D01*
X110001152Y-139244834D01*
X110001165Y-139244801D01*
X110013925Y-139214184D01*
X110157943Y-138868619D01*
X110164289Y-138862302D01*
X110173244Y-138862321D01*
G37*
%TD.AperFunction*%
%TD*%
%TA.AperFunction,Conductor*%
%TO.N,GND*%
G36*
X110712365Y-140072332D02*
G01*
X110716375Y-140074954D01*
X110914973Y-140273552D01*
X110918400Y-140281825D01*
X110914973Y-140290098D01*
X110911656Y-140292424D01*
X110173699Y-140637477D01*
X110164753Y-140637877D01*
X110158144Y-140631834D01*
X110157943Y-140631379D01*
X110001165Y-140255198D01*
X110001146Y-140246244D01*
X110158246Y-139867931D01*
X110164582Y-139861607D01*
X110173311Y-139861524D01*
X110712365Y-140072332D01*
G37*
%TD.AperFunction*%
%TD*%
%TA.AperFunction,Conductor*%
%TO.N,+5V*%
G36*
X109835864Y-140861513D02*
G01*
X109841617Y-140867567D01*
X109999124Y-141245499D01*
X109999143Y-141254454D01*
X109999124Y-141254501D01*
X109841617Y-141632432D01*
X109835271Y-141638750D01*
X109826922Y-141638964D01*
X109157805Y-141402755D01*
X109151145Y-141396769D01*
X109150000Y-141391722D01*
X109150000Y-141108277D01*
X109153427Y-141100004D01*
X109157802Y-141097245D01*
X109826923Y-140861035D01*
X109835864Y-140861513D01*
G37*
%TD.AperFunction*%
%TD*%
%TA.AperFunction,Conductor*%
%TO.N,+5V*%
G36*
X108841267Y-141097711D02*
G01*
X108848400Y-141103123D01*
X108850000Y-141109028D01*
X108850000Y-141390971D01*
X108846573Y-141399244D01*
X108841266Y-141402289D01*
X108374645Y-141524584D01*
X108365774Y-141523366D01*
X108360883Y-141517777D01*
X108349902Y-141491497D01*
X108250883Y-141254509D01*
X108250857Y-141245556D01*
X108250862Y-141245542D01*
X108360883Y-140982221D01*
X108367235Y-140975910D01*
X108374645Y-140975415D01*
X108841267Y-141097711D01*
G37*
%TD.AperFunction*%
%TD*%
%TA.AperFunction,Conductor*%
%TO.N,+5V*%
G36*
X77223333Y-132856168D02*
G01*
X77229658Y-132862507D01*
X77229648Y-132871461D01*
X77229273Y-132872276D01*
X76613253Y-134083604D01*
X76606448Y-134089425D01*
X76602824Y-134090000D01*
X76317176Y-134090000D01*
X76308903Y-134086573D01*
X76306747Y-134083604D01*
X75690726Y-132872276D01*
X75690030Y-132863348D01*
X75695851Y-132856543D01*
X75696649Y-132856175D01*
X76455511Y-132540864D01*
X76464464Y-132540855D01*
X77223333Y-132856168D01*
G37*
%TD.AperFunction*%
%TD*%
%TA.AperFunction,Conductor*%
%TO.N,+5V*%
G36*
X76609974Y-133661383D02*
G01*
X76612743Y-133665788D01*
X76773517Y-134124783D01*
X76773018Y-134133724D01*
X76766986Y-134139447D01*
X76502182Y-134250088D01*
X76497632Y-134250992D01*
X76214026Y-134250046D01*
X76205764Y-134246592D01*
X76202365Y-134238307D01*
X76202562Y-134236209D01*
X76221604Y-134133724D01*
X76308223Y-133667518D01*
X76313103Y-133660011D01*
X76319726Y-133657956D01*
X76601701Y-133657956D01*
X76609974Y-133661383D01*
G37*
%TD.AperFunction*%
%TD*%
%TA.AperFunction,Conductor*%
%TO.N,GND*%
G36*
X79331461Y-129230351D02*
G01*
X79332270Y-129230723D01*
X80543604Y-129846747D01*
X80549425Y-129853552D01*
X80550000Y-129857176D01*
X80550000Y-130142823D01*
X80546573Y-130151096D01*
X80543604Y-130153252D01*
X79332276Y-130769273D01*
X79323348Y-130769969D01*
X79316543Y-130764148D01*
X79316168Y-130763333D01*
X79061325Y-130150000D01*
X79000864Y-130004488D01*
X79000855Y-129995535D01*
X79000865Y-129995511D01*
X79059850Y-129853552D01*
X79316169Y-129236664D01*
X79322507Y-129230341D01*
X79331461Y-129230351D01*
G37*
%TD.AperFunction*%
%TD*%
%TA.AperFunction,Conductor*%
%TO.N,GND*%
G36*
X80634225Y-129726633D02*
G01*
X80639116Y-129732222D01*
X80749115Y-129995489D01*
X80749142Y-130004444D01*
X80749115Y-130004511D01*
X80639116Y-130267777D01*
X80632764Y-130274089D01*
X80625354Y-130274584D01*
X80158734Y-130152289D01*
X80151600Y-130146876D01*
X80150000Y-130140971D01*
X80150000Y-129859028D01*
X80153427Y-129850755D01*
X80158731Y-129847711D01*
X80625354Y-129725415D01*
X80634225Y-129726633D01*
G37*
%TD.AperFunction*%
%TD*%
%TA.AperFunction,Conductor*%
%TO.N,/UGND*%
G36*
X88384065Y-137476725D02*
G01*
X88389199Y-137482468D01*
X88498835Y-137746204D01*
X88498846Y-137755159D01*
X88498827Y-137755206D01*
X88389753Y-138016254D01*
X88383401Y-138022566D01*
X88374446Y-138022539D01*
X88374333Y-138022490D01*
X87839073Y-137792174D01*
X87832828Y-137785757D01*
X87832950Y-137776803D01*
X87835421Y-137773157D01*
X88033218Y-137575360D01*
X88038259Y-137572390D01*
X88375168Y-137475713D01*
X88384065Y-137476725D01*
G37*
%TD.AperFunction*%
%TD*%
%TA.AperFunction,Conductor*%
%TO.N,Net-(U1-AVCC)*%
G36*
X100649244Y-134403427D02*
G01*
X100652289Y-134408734D01*
X100774584Y-134875354D01*
X100773366Y-134884225D01*
X100767777Y-134889116D01*
X100504511Y-134999115D01*
X100495556Y-134999142D01*
X100495489Y-134999115D01*
X100232222Y-134889116D01*
X100225910Y-134882764D01*
X100225415Y-134875354D01*
X100347711Y-134408734D01*
X100353124Y-134401600D01*
X100359029Y-134400000D01*
X100640971Y-134400000D01*
X100649244Y-134403427D01*
G37*
%TD.AperFunction*%
%TD*%
%TA.AperFunction,Conductor*%
%TO.N,Net-(U1-AVCC)*%
G36*
X99776709Y-129639085D02*
G01*
X99782298Y-129643976D01*
X100025773Y-130060404D01*
X100026991Y-130069274D01*
X100023946Y-130074581D01*
X99824581Y-130273946D01*
X99816308Y-130277373D01*
X99810404Y-130275773D01*
X99393976Y-130032298D01*
X99388563Y-130025164D01*
X99389057Y-130017756D01*
X99497436Y-129753814D01*
X99503746Y-129747464D01*
X99767756Y-129639058D01*
X99776709Y-129639085D01*
G37*
%TD.AperFunction*%
%TD*%
%TA.AperFunction,Conductor*%
%TO.N,/MOSI2*%
G36*
X91689592Y-125974225D02*
G01*
X92106023Y-126217701D01*
X92111436Y-126224835D01*
X92110941Y-126232245D01*
X92002563Y-126496184D01*
X91996251Y-126502536D01*
X91996184Y-126502563D01*
X91732245Y-126610941D01*
X91723290Y-126610914D01*
X91717701Y-126606023D01*
X91474225Y-126189593D01*
X91473008Y-126180725D01*
X91476051Y-126175420D01*
X91675419Y-125976052D01*
X91683691Y-125972626D01*
X91689592Y-125974225D01*
G37*
%TD.AperFunction*%
%TD*%
%TA.AperFunction,Conductor*%
%TO.N,/MOSI2*%
G36*
X91491497Y-125099902D02*
G01*
X91517777Y-125110883D01*
X91524089Y-125117235D01*
X91524584Y-125124645D01*
X91402289Y-125591266D01*
X91396876Y-125598400D01*
X91390971Y-125600000D01*
X91109029Y-125600000D01*
X91100756Y-125596573D01*
X91097711Y-125591266D01*
X90975415Y-125124645D01*
X90976633Y-125115774D01*
X90982221Y-125110883D01*
X91245490Y-125000883D01*
X91254444Y-125000857D01*
X91491497Y-125099902D01*
G37*
%TD.AperFunction*%
%TD*%
%TA.AperFunction,Conductor*%
%TO.N,/RESET*%
G36*
X112741497Y-126349902D02*
G01*
X112767777Y-126360883D01*
X112774089Y-126367235D01*
X112774584Y-126374645D01*
X112652289Y-126841266D01*
X112646876Y-126848400D01*
X112640971Y-126850000D01*
X112359029Y-126850000D01*
X112350756Y-126846573D01*
X112347711Y-126841266D01*
X112225415Y-126374645D01*
X112226633Y-126365774D01*
X112232221Y-126360883D01*
X112495490Y-126250883D01*
X112504444Y-126250857D01*
X112741497Y-126349902D01*
G37*
%TD.AperFunction*%
%TD*%
%TA.AperFunction,Conductor*%
%TO.N,/RESET*%
G36*
X110667658Y-142967163D02*
G01*
X110673445Y-142970323D01*
X110872876Y-143169754D01*
X110876303Y-143178027D01*
X110872876Y-143186300D01*
X110870924Y-143187872D01*
X110174389Y-143635104D01*
X110165576Y-143636691D01*
X110158223Y-143631580D01*
X110157268Y-143629760D01*
X110001165Y-143255198D01*
X110001146Y-143246244D01*
X110158894Y-142866370D01*
X110165230Y-142860046D01*
X110172183Y-142859426D01*
X110667658Y-142967163D01*
G37*
%TD.AperFunction*%
%TD*%
%TA.AperFunction,Conductor*%
%TO.N,/+3V3*%
G36*
X88591267Y-145847711D02*
G01*
X88598400Y-145853123D01*
X88600000Y-145859028D01*
X88600000Y-146140971D01*
X88596573Y-146149244D01*
X88591266Y-146152289D01*
X88124645Y-146274584D01*
X88115774Y-146273366D01*
X88110883Y-146267777D01*
X88099902Y-146241497D01*
X88000883Y-146004509D01*
X88000857Y-145995556D01*
X88000862Y-145995542D01*
X88110883Y-145732221D01*
X88117235Y-145725910D01*
X88124645Y-145725415D01*
X88591267Y-145847711D01*
G37*
%TD.AperFunction*%
%TD*%
%TA.AperFunction,Conductor*%
%TO.N,/+3V3*%
G36*
X109835864Y-141861513D02*
G01*
X109841617Y-141867567D01*
X109999124Y-142245499D01*
X109999143Y-142254454D01*
X109999124Y-142254501D01*
X109841617Y-142632432D01*
X109835271Y-142638750D01*
X109826922Y-142638964D01*
X109157805Y-142402755D01*
X109151145Y-142396769D01*
X109150000Y-142391722D01*
X109150000Y-142108277D01*
X109153427Y-142100004D01*
X109157802Y-142097245D01*
X109826923Y-141861035D01*
X109835864Y-141861513D01*
G37*
%TD.AperFunction*%
%TD*%
%TA.AperFunction,Conductor*%
%TO.N,/RD-*%
G36*
X95579244Y-134153427D02*
G01*
X95582289Y-134158734D01*
X95704584Y-134625354D01*
X95703366Y-134634225D01*
X95697777Y-134639116D01*
X95434511Y-134749115D01*
X95425556Y-134749142D01*
X95425489Y-134749115D01*
X95162222Y-134639116D01*
X95155910Y-134632764D01*
X95155415Y-134625354D01*
X95277711Y-134158734D01*
X95283124Y-134151600D01*
X95289029Y-134150000D01*
X95570971Y-134150000D01*
X95579244Y-134153427D01*
G37*
%TD.AperFunction*%
%TD*%
%TA.AperFunction,Conductor*%
%TO.N,/RD-*%
G36*
X90526709Y-117389085D02*
G01*
X90532298Y-117393976D01*
X90775773Y-117810404D01*
X90776991Y-117819274D01*
X90773946Y-117824581D01*
X90574581Y-118023946D01*
X90566308Y-118027373D01*
X90560404Y-118025773D01*
X90143976Y-117782298D01*
X90138563Y-117775164D01*
X90139057Y-117767756D01*
X90247436Y-117503814D01*
X90253746Y-117497464D01*
X90517756Y-117389058D01*
X90526709Y-117389085D01*
G37*
%TD.AperFunction*%
%TD*%
%TA.AperFunction,Conductor*%
%TO.N,/RD+*%
G36*
X87276709Y-115639085D02*
G01*
X87282298Y-115643976D01*
X87525773Y-116060404D01*
X87526991Y-116069274D01*
X87523946Y-116074581D01*
X87324581Y-116273946D01*
X87316308Y-116277373D01*
X87310404Y-116275773D01*
X86893976Y-116032298D01*
X86888563Y-116025164D01*
X86889057Y-116017756D01*
X86997436Y-115753814D01*
X87003746Y-115747464D01*
X87267756Y-115639058D01*
X87276709Y-115639085D01*
G37*
%TD.AperFunction*%
%TD*%
%TA.AperFunction,Conductor*%
%TO.N,/RD+*%
G36*
X94649244Y-134153427D02*
G01*
X94652289Y-134158734D01*
X94774584Y-134625354D01*
X94773366Y-134634225D01*
X94767777Y-134639116D01*
X94504511Y-134749115D01*
X94495556Y-134749142D01*
X94495489Y-134749115D01*
X94232222Y-134639116D01*
X94225910Y-134632764D01*
X94225415Y-134625354D01*
X94347711Y-134158734D01*
X94353124Y-134151600D01*
X94359029Y-134150000D01*
X94640971Y-134150000D01*
X94649244Y-134153427D01*
G37*
%TD.AperFunction*%
%TD*%
%TA.AperFunction,Conductor*%
%TO.N,Net-(X1-VBUS)*%
G36*
X93649244Y-135903427D02*
G01*
X93652289Y-135908734D01*
X93774584Y-136375354D01*
X93773366Y-136384225D01*
X93767777Y-136389116D01*
X93504511Y-136499115D01*
X93495556Y-136499142D01*
X93495489Y-136499115D01*
X93232222Y-136389116D01*
X93225910Y-136382764D01*
X93225415Y-136375354D01*
X93347711Y-135908734D01*
X93353124Y-135901600D01*
X93359029Y-135900000D01*
X93640971Y-135900000D01*
X93649244Y-135903427D01*
G37*
%TD.AperFunction*%
%TD*%
%TA.AperFunction,Conductor*%
%TO.N,Net-(X1-VBUS)*%
G36*
X73591267Y-118097711D02*
G01*
X73598400Y-118103123D01*
X73600000Y-118109028D01*
X73600000Y-118390971D01*
X73596573Y-118399244D01*
X73591266Y-118402289D01*
X73124645Y-118524584D01*
X73115774Y-118523366D01*
X73110883Y-118517777D01*
X73099902Y-118491497D01*
X73000883Y-118254509D01*
X73000857Y-118245556D01*
X73000862Y-118245542D01*
X73110883Y-117982221D01*
X73117235Y-117975910D01*
X73124645Y-117975415D01*
X73591267Y-118097711D01*
G37*
%TD.AperFunction*%
%TD*%
%TA.AperFunction,Conductor*%
%TO.N,/PB4*%
G36*
X90884225Y-127476633D02*
G01*
X90889116Y-127482222D01*
X90999115Y-127745489D01*
X90999142Y-127754444D01*
X90999115Y-127754511D01*
X90889116Y-128017777D01*
X90882764Y-128024089D01*
X90875354Y-128024584D01*
X90408734Y-127902289D01*
X90401600Y-127896876D01*
X90400000Y-127890971D01*
X90400000Y-127609028D01*
X90403427Y-127600755D01*
X90408731Y-127597711D01*
X90875354Y-127475415D01*
X90884225Y-127476633D01*
G37*
%TD.AperFunction*%
%TD*%
%TA.AperFunction,Conductor*%
%TO.N,/PB4*%
G36*
X85052286Y-127747692D02*
G01*
X85253623Y-127949029D01*
X85257050Y-127957302D01*
X85256672Y-127960253D01*
X84928183Y-129220454D01*
X84922780Y-129227595D01*
X84913910Y-129228825D01*
X84913062Y-129228569D01*
X84253892Y-129002285D01*
X84247181Y-128996359D01*
X83926095Y-128335251D01*
X83925563Y-128326312D01*
X83931232Y-128319754D01*
X85038630Y-127745577D01*
X85047549Y-127744812D01*
X85052286Y-127747692D01*
G37*
%TD.AperFunction*%
%TD*%
%TA.AperFunction,Conductor*%
%TO.N,/PB5*%
G36*
X87541028Y-128598016D02*
G01*
X87548397Y-128603102D01*
X87550272Y-128609455D01*
X87550272Y-128893916D01*
X87546845Y-128902189D01*
X87545291Y-128903494D01*
X86735332Y-129471660D01*
X86726591Y-129473606D01*
X86720349Y-129470364D01*
X86254548Y-129005536D01*
X86251112Y-128997266D01*
X86252008Y-128992765D01*
X86504573Y-128385369D01*
X86510912Y-128379047D01*
X86517827Y-128378423D01*
X87541028Y-128598016D01*
G37*
%TD.AperFunction*%
%TD*%
%TA.AperFunction,Conductor*%
%TO.N,/PB5*%
G36*
X90884225Y-128476633D02*
G01*
X90889116Y-128482222D01*
X90999115Y-128745489D01*
X90999142Y-128754444D01*
X90999115Y-128754511D01*
X90889116Y-129017777D01*
X90882764Y-129024089D01*
X90875354Y-129024584D01*
X90408734Y-128902289D01*
X90401600Y-128896876D01*
X90400000Y-128890971D01*
X90400000Y-128609028D01*
X90403427Y-128600755D01*
X90408731Y-128597711D01*
X90875354Y-128475415D01*
X90884225Y-128476633D01*
G37*
%TD.AperFunction*%
%TD*%
%TA.AperFunction,Conductor*%
%TO.N,/PB7*%
G36*
X86519044Y-130381039D02*
G01*
X86519209Y-130381109D01*
X87592957Y-130846944D01*
X87599182Y-130853380D01*
X87600000Y-130857677D01*
X87600000Y-131142322D01*
X87596573Y-131150595D01*
X87592957Y-131153055D01*
X86519209Y-131618890D01*
X86510255Y-131619039D01*
X86503819Y-131612814D01*
X86503749Y-131612649D01*
X86250866Y-131004489D01*
X86250854Y-130995541D01*
X86503750Y-130387348D01*
X86510089Y-130381026D01*
X86519044Y-130381039D01*
G37*
%TD.AperFunction*%
%TD*%
%TA.AperFunction,Conductor*%
%TO.N,/PB7*%
G36*
X90884225Y-130726633D02*
G01*
X90889116Y-130732222D01*
X90999115Y-130995489D01*
X90999142Y-131004444D01*
X90999115Y-131004511D01*
X90889116Y-131267777D01*
X90882764Y-131274089D01*
X90875354Y-131274584D01*
X90408734Y-131152289D01*
X90401600Y-131146876D01*
X90400000Y-131140971D01*
X90400000Y-130859028D01*
X90403427Y-130850755D01*
X90408731Y-130847711D01*
X90875354Y-130725415D01*
X90884225Y-130726633D01*
G37*
%TD.AperFunction*%
%TD*%
%TA.AperFunction,Conductor*%
%TO.N,/PB6*%
G36*
X89482243Y-131639057D02*
G01*
X89665011Y-131714105D01*
X89746184Y-131747436D01*
X89752536Y-131753748D01*
X89752563Y-131753815D01*
X89860941Y-132017754D01*
X89860914Y-132026709D01*
X89856023Y-132032298D01*
X89439596Y-132275773D01*
X89430725Y-132276991D01*
X89425418Y-132273946D01*
X89226053Y-132074581D01*
X89222626Y-132066308D01*
X89224224Y-132060407D01*
X89467702Y-131643974D01*
X89474835Y-131638563D01*
X89482243Y-131639057D01*
G37*
%TD.AperFunction*%
%TD*%
%TA.AperFunction,Conductor*%
%TO.N,/PB6*%
G36*
X84862649Y-131253749D02*
G01*
X84868973Y-131260089D01*
X84868960Y-131269044D01*
X84868890Y-131269209D01*
X84403056Y-132342957D01*
X84396620Y-132349182D01*
X84392323Y-132350000D01*
X84107677Y-132350000D01*
X84099404Y-132346573D01*
X84096944Y-132342957D01*
X83631109Y-131269209D01*
X83630960Y-131260255D01*
X83637185Y-131253819D01*
X83637241Y-131253794D01*
X84245510Y-131000866D01*
X84254458Y-131000854D01*
X84862649Y-131253749D01*
G37*
%TD.AperFunction*%
%TD*%
%TA.AperFunction,Conductor*%
%TO.N,/UGND*%
G36*
X93482243Y-111889057D02*
G01*
X93665011Y-111964105D01*
X93746184Y-111997436D01*
X93752536Y-112003748D01*
X93752563Y-112003815D01*
X93860941Y-112267754D01*
X93860914Y-112276709D01*
X93856023Y-112282298D01*
X93439596Y-112525773D01*
X93430725Y-112526991D01*
X93425418Y-112523946D01*
X93226053Y-112324581D01*
X93222626Y-112316308D01*
X93224224Y-112310407D01*
X93467702Y-111893974D01*
X93474835Y-111888563D01*
X93482243Y-111889057D01*
G37*
%TD.AperFunction*%
%TD*%
%TA.AperFunction,Conductor*%
%TO.N,/UGND*%
G36*
X67084026Y-112752293D02*
G01*
X67853115Y-113071265D01*
X67859443Y-113077598D01*
X67859865Y-113085344D01*
X67536485Y-114195217D01*
X67533525Y-114200217D01*
X67332759Y-114400983D01*
X67324486Y-114404410D01*
X67316213Y-114400983D01*
X67315349Y-114400017D01*
X66482990Y-113359208D01*
X66480499Y-113350607D01*
X66483843Y-113343639D01*
X67071262Y-112754836D01*
X67079530Y-112751400D01*
X67084026Y-112752293D01*
G37*
%TD.AperFunction*%
%TD*%
%TA.AperFunction,Conductor*%
%TO.N,Net-(X1-Shield)*%
G36*
X64519402Y-114791239D02*
G01*
X64520957Y-114793163D01*
X65363212Y-116096967D01*
X65364822Y-116105776D01*
X65362944Y-116110061D01*
X64377060Y-117507449D01*
X64369491Y-117512233D01*
X64360755Y-117510264D01*
X64357940Y-117507449D01*
X63372055Y-116110061D01*
X63370086Y-116101325D01*
X63371785Y-116096971D01*
X64214043Y-114793162D01*
X64221411Y-114788074D01*
X64223871Y-114787812D01*
X64511129Y-114787812D01*
X64519402Y-114791239D01*
G37*
%TD.AperFunction*%
%TD*%
%TA.AperFunction,Conductor*%
%TO.N,Net-(X1-Shield)*%
G36*
X64374245Y-105489735D02*
G01*
X64377060Y-105492550D01*
X65362944Y-106889937D01*
X65364913Y-106898673D01*
X65363212Y-106903031D01*
X64520957Y-108206837D01*
X64513589Y-108211926D01*
X64511129Y-108212188D01*
X64223871Y-108212188D01*
X64215598Y-108208761D01*
X64214043Y-108206837D01*
X63371787Y-106903031D01*
X63370177Y-106894222D01*
X63372054Y-106889939D01*
X64357940Y-105492549D01*
X64365509Y-105487766D01*
X64374245Y-105489735D01*
G37*
%TD.AperFunction*%
%TD*%
%TA.AperFunction,Conductor*%
%TO.N,Net-(X1-Shield)*%
G36*
X82939592Y-107724225D02*
G01*
X83356023Y-107967701D01*
X83361436Y-107974835D01*
X83360941Y-107982245D01*
X83252563Y-108246184D01*
X83246251Y-108252536D01*
X83246184Y-108252563D01*
X82982245Y-108360941D01*
X82973290Y-108360914D01*
X82967701Y-108356023D01*
X82724225Y-107939593D01*
X82723008Y-107930725D01*
X82726051Y-107925420D01*
X82925419Y-107726052D01*
X82933691Y-107722626D01*
X82939592Y-107724225D01*
G37*
%TD.AperFunction*%
%TD*%
%TA.AperFunction,Conductor*%
%TO.N,Net-(X1-Shield)*%
G36*
X65799612Y-104484238D02*
G01*
X67112119Y-105326547D01*
X67117231Y-105333899D01*
X67117500Y-105336393D01*
X67117500Y-105623606D01*
X67114073Y-105631879D01*
X67112119Y-105633453D01*
X65799614Y-106475760D01*
X65790801Y-106477344D01*
X65786579Y-106475493D01*
X65473066Y-106255716D01*
X64380164Y-105489578D01*
X64375358Y-105482025D01*
X64377301Y-105473284D01*
X64380162Y-105470422D01*
X65786580Y-104484505D01*
X65795320Y-104482563D01*
X65799612Y-104484238D01*
G37*
%TD.AperFunction*%
%TD*%
%TA.AperFunction,Conductor*%
%TO.N,+5V*%
G36*
X134387934Y-122301505D02*
G01*
X134394258Y-122307843D01*
X134394247Y-122316798D01*
X134394091Y-122317156D01*
X133813120Y-123593148D01*
X133806573Y-123599258D01*
X133802472Y-123600000D01*
X133517528Y-123600000D01*
X133509255Y-123596573D01*
X133506880Y-123593148D01*
X132925907Y-122317154D01*
X132925598Y-122308207D01*
X132931708Y-122301660D01*
X132932010Y-122301528D01*
X133655512Y-122000864D01*
X133664461Y-122000854D01*
X134387934Y-122301505D01*
G37*
%TD.AperFunction*%
%TD*%
%TA.AperFunction,Conductor*%
%TO.N,+5V*%
G36*
X133807891Y-123419340D02*
G01*
X133811235Y-123426221D01*
X133878436Y-123986951D01*
X133876018Y-123995573D01*
X133868211Y-123999960D01*
X133866858Y-124000043D01*
X133582367Y-124000992D01*
X133577817Y-124000088D01*
X133577709Y-124000043D01*
X133313848Y-123889796D01*
X133307536Y-123883444D01*
X133307563Y-123874489D01*
X133307616Y-123874365D01*
X133506921Y-123422888D01*
X133513397Y-123416703D01*
X133517624Y-123415913D01*
X133799618Y-123415913D01*
X133807891Y-123419340D01*
G37*
%TD.AperFunction*%
%TD*%
%TA.AperFunction,Conductor*%
%TO.N,GND*%
G36*
X136927934Y-122301505D02*
G01*
X136934258Y-122307843D01*
X136934247Y-122316798D01*
X136934091Y-122317156D01*
X136353120Y-123593148D01*
X136346573Y-123599258D01*
X136342472Y-123600000D01*
X136057528Y-123600000D01*
X136049255Y-123596573D01*
X136046880Y-123593148D01*
X135465907Y-122317154D01*
X135465598Y-122308207D01*
X135471708Y-122301660D01*
X135472010Y-122301528D01*
X136195512Y-122000864D01*
X136204461Y-122000854D01*
X136927934Y-122301505D01*
G37*
%TD.AperFunction*%
%TD*%
%TA.AperFunction,Conductor*%
%TO.N,GND*%
G36*
X136347169Y-123429734D02*
G01*
X136350580Y-123437396D01*
X136379358Y-123987729D01*
X136376368Y-123996170D01*
X136368285Y-124000024D01*
X136367713Y-124000040D01*
X136082367Y-124000992D01*
X136077817Y-124000088D01*
X136077606Y-124000000D01*
X135814748Y-123890172D01*
X135808436Y-123883820D01*
X135808463Y-123874865D01*
X135808958Y-123873828D01*
X136046686Y-123432459D01*
X136053626Y-123426800D01*
X136056987Y-123426307D01*
X136338896Y-123426307D01*
X136347169Y-123429734D01*
G37*
%TD.AperFunction*%
%TD*%
%TA.AperFunction,Conductor*%
%TO.N,/IO3*%
G36*
X124229995Y-129153427D02*
G01*
X124232755Y-129157805D01*
X124468964Y-129826922D01*
X124468486Y-129835864D01*
X124462432Y-129841617D01*
X124084501Y-129999124D01*
X124075546Y-129999143D01*
X124075499Y-129999124D01*
X123697567Y-129841617D01*
X123691249Y-129835271D01*
X123691035Y-129826924D01*
X123927245Y-129157805D01*
X123933231Y-129151145D01*
X123938278Y-129150000D01*
X124221722Y-129150000D01*
X124229995Y-129153427D01*
G37*
%TD.AperFunction*%
%TD*%
%TA.AperFunction,Conductor*%
%TO.N,/IO3*%
G36*
X127852046Y-121698456D02*
G01*
X128576212Y-121997437D01*
X128582551Y-122003762D01*
X128582562Y-122003787D01*
X128881530Y-122727921D01*
X128881519Y-122736876D01*
X128875180Y-122743201D01*
X128874816Y-122743344D01*
X127561746Y-123234797D01*
X127552797Y-123234487D01*
X127549372Y-123232112D01*
X127347887Y-123030627D01*
X127344460Y-123022354D01*
X127345201Y-123018258D01*
X127836655Y-121705182D01*
X127842765Y-121698636D01*
X127851714Y-121698326D01*
X127852046Y-121698456D01*
G37*
%TD.AperFunction*%
%TD*%
%TA.AperFunction,Conductor*%
%TO.N,/IO5*%
G36*
X143092046Y-121698456D02*
G01*
X143816212Y-121997437D01*
X143822551Y-122003762D01*
X143822562Y-122003787D01*
X144121530Y-122727921D01*
X144121519Y-122736876D01*
X144115180Y-122743201D01*
X144114816Y-122743344D01*
X142801746Y-123234797D01*
X142792797Y-123234487D01*
X142789372Y-123232112D01*
X142587887Y-123030627D01*
X142584460Y-123022354D01*
X142585201Y-123018258D01*
X143076655Y-121705182D01*
X143082765Y-121698636D01*
X143091714Y-121698326D01*
X143092046Y-121698456D01*
G37*
%TD.AperFunction*%
%TD*%
%TA.AperFunction,Conductor*%
%TO.N,/IO5*%
G36*
X126182016Y-129402387D02*
G01*
X126183474Y-129404164D01*
X126464754Y-129825533D01*
X126466497Y-129834317D01*
X126461519Y-129841760D01*
X126459524Y-129842829D01*
X126084501Y-129999124D01*
X126075546Y-129999143D01*
X126075499Y-129999124D01*
X125700475Y-129842829D01*
X125694157Y-129836483D01*
X125694176Y-129827528D01*
X125695241Y-129825540D01*
X125976526Y-129404163D01*
X125983969Y-129399186D01*
X125986257Y-129398960D01*
X126173743Y-129398960D01*
X126182016Y-129402387D01*
G37*
%TD.AperFunction*%
%TD*%
%TA.AperFunction,Conductor*%
%TO.N,/IO5*%
G36*
X126229700Y-129154828D02*
G01*
X126230669Y-129155695D01*
X126430652Y-129355678D01*
X126434007Y-129362656D01*
X126483352Y-129805662D01*
X126482664Y-129811105D01*
X126468216Y-129849205D01*
X126468215Y-129849207D01*
X126468215Y-129849209D01*
X126457372Y-129938506D01*
X126451142Y-129989818D01*
X126446743Y-129997618D01*
X126439546Y-130000108D01*
X126084167Y-130000698D01*
X126075889Y-129997285D01*
X126075855Y-129997252D01*
X125786845Y-129706880D01*
X125783438Y-129698598D01*
X125785997Y-129691324D01*
X126213256Y-129156663D01*
X126221098Y-129152340D01*
X126229700Y-129154828D01*
G37*
%TD.AperFunction*%
%TD*%
%TA.AperFunction,Conductor*%
%TO.N,/IO0*%
G36*
X121112641Y-129153427D02*
G01*
X121113513Y-129154402D01*
X121443064Y-129567393D01*
X121445546Y-129575998D01*
X121442761Y-129582353D01*
X121088238Y-129991491D01*
X121080231Y-129995499D01*
X121071734Y-129992671D01*
X121071113Y-129992092D01*
X120660261Y-129580273D01*
X120656844Y-129571996D01*
X120657551Y-129568004D01*
X120807195Y-129157690D01*
X120813249Y-129151093D01*
X120818187Y-129150000D01*
X121104368Y-129150000D01*
X121112641Y-129153427D01*
G37*
%TD.AperFunction*%
%TD*%
%TA.AperFunction,Conductor*%
%TO.N,/IO0*%
G36*
X121687934Y-122301505D02*
G01*
X121694258Y-122307843D01*
X121694247Y-122316798D01*
X121694091Y-122317156D01*
X121113120Y-123593148D01*
X121106573Y-123599258D01*
X121102472Y-123600000D01*
X120817528Y-123600000D01*
X120809255Y-123596573D01*
X120806880Y-123593148D01*
X120225907Y-122317154D01*
X120225598Y-122308207D01*
X120231708Y-122301660D01*
X120232010Y-122301528D01*
X120955512Y-122000864D01*
X120964461Y-122000854D01*
X121687934Y-122301505D01*
G37*
%TD.AperFunction*%
%TD*%
%TA.AperFunction,Conductor*%
%TO.N,/IO0*%
G36*
X119671267Y-128347711D02*
G01*
X119678400Y-128353123D01*
X119680000Y-128359028D01*
X119680000Y-128640971D01*
X119676573Y-128649244D01*
X119671266Y-128652289D01*
X119204645Y-128774584D01*
X119195774Y-128773366D01*
X119190883Y-128767777D01*
X119179902Y-128741497D01*
X119080883Y-128504509D01*
X119080857Y-128495556D01*
X119080862Y-128495542D01*
X119190883Y-128232221D01*
X119197235Y-128225910D01*
X119204645Y-128225415D01*
X119671267Y-128347711D01*
G37*
%TD.AperFunction*%
%TD*%
%TA.AperFunction,Conductor*%
%TO.N,/IO2*%
G36*
X123229995Y-129153427D02*
G01*
X123232755Y-129157805D01*
X123468964Y-129826922D01*
X123468486Y-129835864D01*
X123462432Y-129841617D01*
X123084501Y-129999124D01*
X123075546Y-129999143D01*
X123075499Y-129999124D01*
X122697567Y-129841617D01*
X122691249Y-129835271D01*
X122691035Y-129826924D01*
X122927245Y-129157805D01*
X122933231Y-129151145D01*
X122938278Y-129150000D01*
X123221722Y-129150000D01*
X123229995Y-129153427D01*
G37*
%TD.AperFunction*%
%TD*%
%TA.AperFunction,Conductor*%
%TO.N,/IO2*%
G36*
X126045185Y-122001154D02*
G01*
X126045192Y-122001157D01*
X126767623Y-122301376D01*
X126773948Y-122307715D01*
X126773937Y-122316670D01*
X126773645Y-122317317D01*
X126110834Y-123673766D01*
X126104123Y-123679694D01*
X126095185Y-123679141D01*
X126092049Y-123676902D01*
X125892835Y-123477688D01*
X125890663Y-123474687D01*
X125306574Y-122317397D01*
X125305906Y-122308467D01*
X125311747Y-122301680D01*
X125312512Y-122301328D01*
X126036220Y-122001153D01*
X126045173Y-122001149D01*
X126045185Y-122001154D01*
G37*
%TD.AperFunction*%
%TD*%
%TA.AperFunction,Conductor*%
%TO.N,/IO6*%
G36*
X127158293Y-129125551D02*
G01*
X127160245Y-129127123D01*
X127359676Y-129326554D01*
X127362836Y-129332341D01*
X127470573Y-129827815D01*
X127468982Y-129836627D01*
X127463627Y-129841106D01*
X127083789Y-129998839D01*
X127074834Y-129998847D01*
X127074801Y-129998834D01*
X126700239Y-129842731D01*
X126693921Y-129836385D01*
X126693940Y-129827430D01*
X126694895Y-129825610D01*
X127013769Y-129328985D01*
X127142127Y-129129074D01*
X127149480Y-129123964D01*
X127158293Y-129125551D01*
G37*
%TD.AperFunction*%
%TD*%
%TA.AperFunction,Conductor*%
%TO.N,/IO6*%
G36*
X145632046Y-121698456D02*
G01*
X146356212Y-121997437D01*
X146362551Y-122003762D01*
X146362562Y-122003787D01*
X146661530Y-122727921D01*
X146661519Y-122736876D01*
X146655180Y-122743201D01*
X146654816Y-122743344D01*
X145341746Y-123234797D01*
X145332797Y-123234487D01*
X145329372Y-123232112D01*
X145127887Y-123030627D01*
X145124460Y-123022354D01*
X145125201Y-123018258D01*
X145616655Y-121705182D01*
X145622765Y-121698636D01*
X145631714Y-121698326D01*
X145632046Y-121698456D01*
G37*
%TD.AperFunction*%
%TD*%
%TA.AperFunction,Conductor*%
%TO.N,/IO4*%
G36*
X125229995Y-129153427D02*
G01*
X125232755Y-129157805D01*
X125468964Y-129826922D01*
X125468486Y-129835864D01*
X125462432Y-129841617D01*
X125084501Y-129999124D01*
X125075546Y-129999143D01*
X125075499Y-129999124D01*
X124697567Y-129841617D01*
X124691249Y-129835271D01*
X124691035Y-129826924D01*
X124927245Y-129157805D01*
X124933231Y-129151145D01*
X124938278Y-129150000D01*
X125221722Y-129150000D01*
X125229995Y-129153427D01*
G37*
%TD.AperFunction*%
%TD*%
%TA.AperFunction,Conductor*%
%TO.N,/IO4*%
G36*
X130392046Y-121698456D02*
G01*
X131116212Y-121997437D01*
X131122551Y-122003762D01*
X131122562Y-122003787D01*
X131421530Y-122727921D01*
X131421519Y-122736876D01*
X131415180Y-122743201D01*
X131414816Y-122743344D01*
X130101746Y-123234797D01*
X130092797Y-123234487D01*
X130089372Y-123232112D01*
X129887887Y-123030627D01*
X129884460Y-123022354D01*
X129885201Y-123018258D01*
X130376655Y-121705182D01*
X130382765Y-121698636D01*
X130391714Y-121698326D01*
X130392046Y-121698456D01*
G37*
%TD.AperFunction*%
%TD*%
%TA.AperFunction,Conductor*%
%TO.N,/IO1*%
G36*
X122229995Y-129153427D02*
G01*
X122232755Y-129157805D01*
X122468964Y-129826922D01*
X122468486Y-129835864D01*
X122462432Y-129841617D01*
X122084501Y-129999124D01*
X122075546Y-129999143D01*
X122075499Y-129999124D01*
X121712699Y-129847923D01*
X121706381Y-129841577D01*
X121705500Y-129837123D01*
X121705500Y-129787953D01*
X121706167Y-129784058D01*
X121927245Y-129157805D01*
X121933231Y-129151145D01*
X121938278Y-129150000D01*
X122221722Y-129150000D01*
X122229995Y-129153427D01*
G37*
%TD.AperFunction*%
%TD*%
%TA.AperFunction,Conductor*%
%TO.N,/IO1*%
G36*
X122772046Y-121698456D02*
G01*
X123496212Y-121997437D01*
X123502551Y-122003762D01*
X123502562Y-122003787D01*
X123801530Y-122727921D01*
X123801519Y-122736876D01*
X123795180Y-122743201D01*
X123794816Y-122743344D01*
X122481746Y-123234797D01*
X122472797Y-123234487D01*
X122469372Y-123232112D01*
X122267887Y-123030627D01*
X122264460Y-123022354D01*
X122265201Y-123018258D01*
X122756655Y-121705182D01*
X122762765Y-121698636D01*
X122771714Y-121698326D01*
X122772046Y-121698456D01*
G37*
%TD.AperFunction*%
%TD*%
%TA.AperFunction,Conductor*%
%TO.N,/IO1*%
G36*
X123464225Y-123726633D02*
G01*
X123469116Y-123732222D01*
X123579115Y-123995489D01*
X123579142Y-124004444D01*
X123579115Y-124004511D01*
X123469116Y-124267777D01*
X123462764Y-124274089D01*
X123455354Y-124274584D01*
X122988734Y-124152289D01*
X122981600Y-124146876D01*
X122980000Y-124140971D01*
X122980000Y-123859028D01*
X122983427Y-123850755D01*
X122988731Y-123847711D01*
X123455354Y-123725415D01*
X123464225Y-123726633D01*
G37*
%TD.AperFunction*%
%TD*%
%TA.AperFunction,Conductor*%
%TO.N,/IO7*%
G36*
X148172046Y-121698456D02*
G01*
X148896212Y-121997437D01*
X148902551Y-122003762D01*
X148902562Y-122003787D01*
X149201530Y-122727921D01*
X149201519Y-122736876D01*
X149195180Y-122743201D01*
X149194816Y-122743344D01*
X147881746Y-123234797D01*
X147872797Y-123234487D01*
X147869372Y-123232112D01*
X147667887Y-123030627D01*
X147664460Y-123022354D01*
X147665201Y-123018258D01*
X148156655Y-121705182D01*
X148162765Y-121698636D01*
X148171714Y-121698326D01*
X148172046Y-121698456D01*
G37*
%TD.AperFunction*%
%TD*%
%TA.AperFunction,Conductor*%
%TO.N,/IO7*%
G36*
X128922196Y-129847245D02*
G01*
X128928855Y-129853230D01*
X128930000Y-129858277D01*
X128930000Y-130141722D01*
X128926573Y-130149995D01*
X128922195Y-130152755D01*
X128253077Y-130388964D01*
X128244135Y-130388486D01*
X128238382Y-130382432D01*
X128142662Y-130152755D01*
X128080874Y-130004498D01*
X128080856Y-129995546D01*
X128238382Y-129617566D01*
X128244728Y-129611249D01*
X128253075Y-129611035D01*
X128922196Y-129847245D01*
G37*
%TD.AperFunction*%
%TD*%
M02*
